<?xml version="1.0" standalone="no"?>
<!DOCTYPE svg PUBLIC "-//W3C//DTD SVG 1.1//EN" "http://www.w3.org/Graphics/SVG/1.1/DTD/svg11.dtd" >
<!--
2013-9-30: Created.
-->
<svg>
<metadata>
Created by iconfont
</metadata>
<defs>

<font id="iconfont" horiz-adv-x="1024" >
  <font-face
    font-family="iconfont"
    font-weight="500"
    font-stretch="normal"
    units-per-em="1024"
    ascent="896"
    descent="-128"
  />
    <missing-glyph />
    
    <glyph glyph-name="mima1" unicode="&#58992;" d="M841.055971 479.622457H788.631401V639.4335a277.919793 277.919793 0 0 1-554.038898 0v-159.851968h-52.383646C73.22632 479.622457 61.44 412.301287 61.44 383.653981v-383.669277A133.660145 133.660145 0 0 1 199.970187-127.905055h623.324454A133.660145 133.660145 0 0 1 961.783904-0.015296V383.653981c0 28.647306-11.78632 95.968475-120.727933 95.968476z m-537.218837 159.606419a208.429614 208.429614 0 0 0 415.549636 0v-159.851968H303.837134zM892.539272-0.219919a66.748223 66.748223 0 0 0-69.244631-63.965342H199.970187a66.748223 66.748223 0 0 0-69.244631 63.924417V383.653981c0 29.670424 21.812877 32.044058 51.524226 32.044058h658.765264c29.711349 0 51.524226-2.373634 51.524226-32.044058zM524.134917 286.007593a32.49423 32.49423 0 0 1-25.04593 0 62.451127 62.451127 0 0 1-19.602943-116.103439v-74.032824a32.125907 32.125907 0 0 1 64.210891 0v74.032824a62.451127 62.451127 0 0 1-19.602943 116.103439z"  horiz-adv-x="1024" />

    
    <glyph glyph-name="yanzhengma1" unicode="&#58996;" d="M902.236313 768.045731A794.530187 794.530187 0 0 0 557.055536 883.245626a85.178104 85.178104 0 0 1-45.14905 12.706898h0.372363a86.574467 86.574467 0 0 1-45.14905-12.706898A793.925096 793.925096 0 0 0 121.949022 768.045731 81.361381 81.361381 0 0 1 46.592 688.406531v-370.129119c0-246.690685 349.090592-446.184322 465.454122-446.184321s465.454122 199.772909 465.454123 446.184321V688.406531a81.454471 81.454471 0 0 1-75.263932 79.732291z m-7.866175-449.628682a243.199779 243.199779 0 0 0-43.845778-131.723517 526.894066 526.894066 0 0 0-114.967168-122.460979 691.245917 691.245917 0 0 0-137.495148-85.085014 257.023766 257.023766 0 0 0-85.783195-27.182521 259.956127 259.956127 0 0 0-85.783194 27.182521 700.694636 700.694636 0 0 0-137.495148 85.085014 526.894066 526.894066 0 0 0-114.967168 122.460979 243.572142 243.572142 0 0 0-43.845779 131.723517V688.31344a882.547561 882.547561 0 0 1 382.091289 127.534429 880.73229 880.73229 0 0 1 382.091289-127.394793zM331.822286 383.999535a44.171596 44.171596 0 0 1-55.063223 0 39.889418 39.889418 0 0 1-5.119995-57.762857l120.366436-115.525713a51.94468 51.94468 0 0 1 60.043582 0l300.776454 288.581556a39.517055 39.517055 0 0 1 0 52.829043 44.03196 44.03196 0 0 1-60.183218 4.887268l-270.615027-259.676855z"  horiz-adv-x="1024" />

    
    <glyph glyph-name="shoujihao" unicode="&#58997;" d="M508.34189 810.880052a241.130097 241.130097 0 1 0-239.423586-241.087435 240.575481 240.575481 0 0 0 239.423586 241.087435m0 85.112269a326.199704 326.199704 0 1 1 323.938576-326.199704A325.090471 325.090471 0 0 1 508.34189 895.992321zM63.880929-127.957337a42.662791 42.662791 0 0 0-41.980187 49.915466c43.089419 243.945842 283.96354 375.432565 488.702276 375.432565a42.662791 42.662791 0 0 0 0-85.112269c-135.71034 0-365.620123-82.893804-404.869891-305.294936a42.662791 42.662791 0 0 0-41.852198-34.940826zM960.055526-127.914674a42.662791 42.662791 0 0 0-41.852198 35.15414c-39.292431 222.358469-269.159551 305.252273-404.869891 305.252273a42.662791 42.662791 0 0 0 0 85.112269c204.781399 0 445.612857-131.614712 488.702276-375.432565A42.662791 42.662791 0 0 0 960.055526-127.914674z"  horiz-adv-x="1024" />

    
    <glyph glyph-name="daiyouji" unicode="&#58993;" d="M625.050879-79.826505H126.422804A127.843382 127.843382 0 0 0 0.005185 49.140205V767.1197A127.843382 127.843382 0 0 0 126.422804 895.956795h944.589342a127.843382 127.843382 0 0 0 126.41762-128.837095v-362.489347a42.124805 42.124805 0 1 0-84.292815 0v362.489347a42.686469 42.686469 0 0 1-42.124805 42.945698H126.422804a42.686469 42.686469 0 0 1-42.124805-42.945698v-717.979495a42.686469 42.686469 0 0 1 42.124805-42.945698h498.49846a42.945698 42.945698 0 0 0 0-85.891397zM328.362638 332.046074v48.821569H167.985945c-11.103667 1.166533-16.590692 9.02983-16.590692 23.633095 1.123328 13.436733 7.172018 20.738365 18.275684 21.904899h353.977976c9.980338-1.166533 16.029028-8.640986 18.275684-21.904899-1.123328-14.603266-6.610354-22.466563-16.590692-23.633095H376.449723v-67.442893q1.684992-50.463356-85.977807-30.24345a24.972448 24.972448 0 0 0-19.787857 23.633096 19.355808 19.355808 0 0 0 18.275684 20.176701 96.995063 96.995063 0 0 0 13.220708-1.728197c18.491709-2.246656 27.348719-0.08641 26.182187 6.783174zM169.627732 618.537952c-9.980338 1.166533-15.467364 9.02983-16.590692 23.633096 1.123328 13.436733 6.610354 20.738365 16.590692 21.904898h354.021181c10.974052-1.166533 17.281971-8.640986 18.275684-21.904898-1.123328-14.603266-7.172018-22.466563-18.275684-23.633096H421.123618v-18.621324h67.831737c17.541201 0 26.398211-7.301633 26.398212-21.904899v-57.246529c0-16.893127-8.640986-25.361293-26.398212-25.361293H202.679502c-19.787857-1.166533-29.206531 6.739969-28.083203 23.633096V572.999958c0 19.053373 8.295346 28.083203 24.842834 26.91667H272.196231v18.621324z m-1.684992-294.916839c2.246656 1.166533 11.535716 7.863297 28.083203 20.176701 22.034513 15.769799 34.131893 24.19476 36.37855 25.361293a21.991308 21.991308 0 0 0 31.453187-6.739969 24.410784 24.410784 0 0 0-4.925362-32.058056q-23.157841-16.763512-67.831737-45.537994a21.991308 21.991308 0 0 0-31.453187 6.739968 22.423358 22.423358 0 0 0 8.338551 32.014852z m28.083203 119.677651c-9.980338 1.123328-14.9057 7.863297-14.9057 20.176701 1.123328 12.313404 6.610354 18.621324 16.590692 18.621324h296.083372c19.787857-12.313404 19.787857-25.361293 0-38.884435z m23.157842 116.264461v-21.904898H272.196231v21.904898z m99.371334 40.526223H371.567566v18.621324H318.555119z m0-60.4869H371.567566v20.176702H318.555119z m171.912409-247.823467a762.696595 762.696595 0 0 0-72.757099 40.526223 26.441416 26.441416 0 0 0-4.925362 32.058056 23.76271 23.76271 0 0 0 29.768196 8.640986 404.052487 404.052487 0 0 0 72.757099-40.526223 22.120923 22.120923 0 0 0 9.980338-32.058056 25.361293 25.361293 0 0 0-34.779967-8.900216zM421.080413 539.602548h49.599258v20.176702H421.123618z m595.968778 38.668411h-370.827897a42.945698 42.945698 0 0 0 0 85.891397h370.827897a42.945698 42.945698 0 0 0 0-85.891397z m0-161.067972h-370.827897a42.945698 42.945698 0 0 0 0 85.891397h370.827897a42.945698 42.945698 0 0 0 0-85.891397zM950.470397 294.241762a175.930467 175.930467 0 1 0-175.887262-175.887262 176.016877 176.016877 0 0 0 175.887262 175.887262m0 70.380828a246.26809 246.26809 0 1 1 246.26809-246.26809 246.26809 246.26809 0 0 1-246.26809 246.26809zM915.344791 223.860934a35.298426 35.298426 0 0 1-35.168812-35.168811v-105.54964a35.168811 35.168811 0 0 1 70.380828 0v105.54964a35.298426 35.298426 0 0 1-35.212016 35.168811zM1020.89443 118.311295h-105.549639a35.168811 35.168811 0 1 1 0-70.380828h105.549639a35.168811 35.168811 0 0 1 0 70.380828z"  horiz-adv-x="1197" />

    
    <glyph glyph-name="daishangchuan" unicode="&#58994;" d="M1011.584782 454.228549a42.178176 42.178176 0 0 1-33.315102 9.05165 38.595231 38.595231 0 0 1-28.977853-14.363209 39.883834 39.883834 0 0 1-8.925933-31.429341v-55.598505a44.755382 44.755382 0 0 1 36.646612-44.818241l1.005739-0.251434h4.211532a41.423872 41.423872 0 0 1 41.863882 38.752377v72.06748a34.572276 34.572276 0 0 1-12.508877 26.589223z m-58.332858-236.977234l-0.754304 0.502869-0.754304 0.377153a41.51816 41.51816 0 0 1-54.247044-21.057659c-9.177368-18.323306-18.574741-33.912259-27.626391-49.029773a41.361013 41.361013 0 0 1 13.011748-58.332857l0.754304-0.377152a50.915533 50.915533 0 0 1 20.429072-7.417325 49.972653 49.972653 0 0 1 32.560797 15.714671l0.754305 0.754304 0.628586 0.880021a519.275578 519.275578 0 0 1 31.712206 56.949967 40.858144 40.858144 0 0 1 6.285868 31.712206 48.055463 48.055463 0 0 1-22.723414 29.292146z m-198.916302-185.118821c-15.117513-9.05165-30.706467-18.449023-49.029772-27.626391a37.71521 37.71521 0 0 1-21.183376-22.534838 45.541116 45.541116 0 0 1 41.109578-57.075683 38.595231 38.595231 0 0 1 20.429072 4.211531 562.930933 562.930933 0 0 1 57.075684 34.792281 31.649347 31.649347 0 0 1 15.368948 19.549051 45.289681 45.289681 0 0 1-5.437276 35.798019 41.298155 41.298155 0 0 1-58.332858 12.88603z m-242.194504-76.781881a428.413352 428.413352 0 0 0 0 856.826705 421.153174 421.153174 0 0 0 256.180561-84.073488l-79.484804-69.584562 199.48203-65.37303 87.279281-27.720679-17.443285 65.37303-47.678311 224.594073-78.981935-72.067479A513.775443 513.775443 0 0 1 512.172547 895.999371a507.049564 507.049564 0 0 1-198.853443-40.355274 517.044095 517.044095 0 0 1-272.900971-272.775254 510.003923 510.003923 0 0 1 0-397.706886 516.258361 516.258361 0 0 1 272.775254-272.775253 504.818081 504.818081 0 0 1 198.853443-40.355275 41.675307 41.675307 0 1 1 0 83.319184zM545.047638 616.90682a28.977853 28.977853 0 0 1-14.740361 14.740361 31.712205 31.712205 0 0 1-18.700458 5.688711 33.252243 33.252243 0 0 1-18.700458-5.688711c-5.688711-3.708662-11.251704-7.291607-13.011748-13.011747l-121.725839-145.486421a35.32658 35.32658 0 0 1 22.000539-57.327119h7.543042a39.695258 39.695258 0 0 1 27.720679 13.011747l60.784347 74.801833v-336.671105a37.338058 37.338058 0 0 1 18.700458-31.209336 31.712205 31.712205 0 0 1 18.700458-5.688711 38.343796 38.343796 0 0 1 37.400916 37.400916V504.232631l61.035781-71.941762a39.192389 39.192389 0 0 1 27.752108-13.011748h5.437276a36.426607 36.426607 0 0 1 27.72068 23.8863 32.43508 32.43508 0 0 1-8.045912 31.806493l-119.871508 141.903477z"  horiz-adv-x="1024" />

    
    <glyph glyph-name="daishenhe" unicode="&#58995;" d="M771.469765 362.22156a217.993875 217.993875 0 1 0-217.993875-217.993875 223.307476 223.307476 0 0 0 217.993875 217.993875z m0 54.089731a272.117667 272.117667 0 1 1 272.083605-272.117667 268.473082 268.473082 0 0 1-272.083605 272.117667M419.511842-93.487823H146.61076a132.533464 132.533464 0 0 0-136.518664 133.419064V749.365058A135.088079 135.088079 0 0 0 146.61076 885.883722h600.402817a132.431279 132.431279 0 0 0 133.214695-136.518664v-163.699776c0-16.349541-7.697909-27.249234-24.115572-27.249234s-24.047449 11.001878-24.04745 27.249234V749.365058a92.71552 92.71552 0 0 1-85.153857 88.355642H146.61076a95.678874 95.678874 0 0 1-88.28752-88.355642v-709.433817a92.681458 92.681458 0 0 1 88.28752-85.153857h272.901082c16.349541 0 27.249234-7.629786 27.249234-24.115573s-10.967817-24.183695-27.249234-24.183695zM419.511842-103.638163H146.61076a141.968511 141.968511 0 0 0-146.634943 143.569404V749.365058a145.03405 145.03405 0 0 0 146.464635 146.464634h600.573125a141.832265 141.832265 0 0 0 143.365035-146.464634v-163.699776a34.368097 34.368097 0 1 0-68.42964 0V749.365058a82.973919 82.973919 0 0 1-74.935395 78.341548H146.61076a86.005396 86.005396 0 0 1-78.171241-78.341548v-709.433817a82.973919 82.973919 0 0 1 78.171241-74.935395h272.901082a34.402158 34.402158 0 1 0 0-68.565886zM146.61076 875.563074A125.005863 125.005863 0 0 1 20.276497 749.19475v-709.263509a122.042508 122.042508 0 0 1 126.334263-123.200601h272.901082c17.030771 0 17.030771 9.741601 17.030771 13.89711s0 14.033356-17.030771 14.033355H146.61076a102.184629 102.184629 0 0 0-98.437859 95.202013V749.365058a105.113922 105.113922 0 0 0 98.437859 98.47192h600.402817a103.444906 103.444906 0 0 0 95.202013-98.47192v-163.699776c0-17.235141 9.741601-17.235141 13.89711-17.235141s13.999294 0 13.999294 17.235141V749.365058a122.008447 122.008447 0 0 1-123.098417 126.368324zM637.812271 616.116302H255.812066c-16.383602 0-25.750526 7.766032-25.750526 24.047449s9.298801 24.115572 25.682403 24.115572h382.068328c16.383602 0 25.682403-7.73197 25.682403-24.115572s-9.230678-24.047449-25.682403-24.047449z m-48.946437-163.699776H255.812066c-16.383602 0-25.750526 7.73197-25.750526 24.115573s9.298801 24.047449 25.682403 24.047449h333.121891c16.383602 0 25.682403-7.766032 25.682403-24.047449s-9.26474-24.115572-25.682403-24.115573zM588.865834 442.232125H255.812066a34.231851 34.231851 0 1 0 0 68.42964h333.121891a32.22222 32.22222 0 0 0 35.832743-34.061543 33.380312 33.380312 0 0 0-9.060371-24.796804 36.684282 36.684282 0 0 0-26.840495-9.571293zM255.812066 490.46327c-12.977448 0-15.566125-5.279539-15.566125-13.89711s2.554616-13.999294 15.566125-13.999294h333.121891a19.244772 19.244772 0 0 1 12.466524 3.406154 14.271786 14.271786 0 0 1 3.031478 10.422832c0 8.719755-2.554616 13.999294-15.532064 13.999294z m186.214456-239.28234H255.812066a34.265912 34.265912 0 1 0 0 68.42964h186.282579a32.22222 32.22222 0 0 0 35.832743-34.061543 33.380312 33.380312 0 0 0-9.06037-24.830865 36.684282 36.684282 0 0 0-26.806435-9.435047z m195.785749 354.853155H255.812066a34.231851 34.231851 0 1 0 0 68.42964h382.068328a32.22222 32.22222 0 0 0 35.832743-34.265913 33.141881 33.141881 0 0 0-9.06037-24.72868 36.479913 36.479913 0 0 0-26.840496-9.469109zM255.812066 654.128983c-12.977448 0-15.566125-5.245478-15.566125-13.897109s2.588677-13.89711 15.566125-13.89711h382.068328a18.699787 18.699787 0 0 1 12.466525 3.406155 14.373971 14.373971 0 0 1 3.031477 10.422832c0 8.651632-2.554616 13.89711-15.532064 13.897109H255.812066z m424.236518-395.82919H752.769978c-5.586093 11.104063-3.133662 18.359172 7.255109 21.765326q19.755695 8.311016 29.122619-21.765326h74.935395c15.940802 0 23.84308-7.255109 23.84308-21.833449a97.416013 97.416013 0 0 0-3.099601-27.010804q-4.18957-17.677941-17.677941-16.622033a23.84308 23.84308 0 0 0 3.099601-12.466524v-97.654444c0-14.57834-7.970401-21.833449-23.84308-21.833449h-60.186747v-17.609818q-1.021846-11.444678-15.566125-12.466525c-10.218463 0-15.566125 3.814893-15.566125 11.410617v18.52948h-60.254869c-16.656095 0-24.558372 6.812309-23.84308 20.811602v108.077276c-11.785294-1.362462-17.337325 3.780831-16.656095 15.566125v28.03265c-0.953723 16.724218 7.595724 25.069296 25.716465 25.069296z m171.431746-29.122619h-164.142576c-2.043693-0.681231-3.133662-1.703077-3.133662-3.065539v-18.699787h70.677702v6.1992q0 11.376555 15.566125 12.466525 14.544279-1.089969 15.566125-12.466525v-6.1992h66.65844a72.891702 72.891702 0 0 1 4.155508 16.587971 6.812309 6.812309 0 0 1-5.177355 5.177355z m-149.632359-77.932811h52.999761v25.954896h-49.866099c-2.043693-0.681231-3.133662-1.703077-3.133662-3.0996v-22.855296z m3.133662-60.254869h49.866099v31.064127h-52.999761v-28.03265a2.724923 2.724923 0 0 1 3.133662-3.133662z m132.840018 60.254869v22.855296a6.812309 6.812309 0 0 1-3.0996 3.0996h-48.844253v-25.954896h51.943853z m-51.943853-29.122619v-31.166312h49.866099a2.758985 2.758985 0 0 1 3.133662 3.099601v27.998588h-52.999761z"  horiz-adv-x="1043" />

    
    <glyph glyph-name="fukuan" unicode="&#58985;" d="M1052.183486 199.55474c-24.425688-5.323547-48.851376-13.152294-73.277064-19.102141a503.544954 503.544954 0 0 1 31.314985 313.149847A511.68685 511.68685 0 0 1 511.06055 896a501.039755 501.039755 0 0 1-241.438532-62.629969 510.747401 510.747401 0 0 1-65.135168-857.717432A512.6263 512.6263 0 0 1 836.423242-12.134557l-48.851377 48.851377A444.359633 444.359633 0 0 0 594.984709-51.278287a438.409786 438.409786 0 0 0-292.795107 46.033027 440.914985 440.914985 0 1 0 615.96575 209.497248c-8.768196 28.809786-15.344343 58.245872-24.738838 86.429358a35.072783 35.072783 0 0 1-31.314985 22.859938 34.446483 34.446483 0 0 1-33.820183-43.840978c17.223242-62.629969 34.133333-125.259939 50.417125-187.889908 64.195719 12.212844 127.138838 31.314985 190.081957 47.598776a40.39633 40.39633 0 0 1 22.859939 15.344343 39.770031 39.770031 0 0 1-39.456881 56.053822zM670.453823 535.564526a34.133333 34.133333 0 0 1-16.596942 55.740673 39.143731 39.143731 0 0 1-40.396331-15.344343L526.718043 488.905199 438.409786 577.839755a34.446483 34.446483 0 0 1-41.02263 11.586545 35.385933 35.385933 0 0 1-14.091743-56.366973l93.944954-93.944954-11.899694-11.586544a388.93211 388.93211 0 0 1-68.892967-2.505199 34.759633 34.759633 0 0 1 0-62.629969 502.605505 502.605505 0 0 1 93.944955-3.444649v-46.033027h-85.489909a33.820183 33.820183 0 0 1-31.314984-35.699083 35.072783 35.072783 0 0 1 35.699082-31.314985h80.166361v-82.984709a34.759633 34.759633 0 0 1 69.519266 0v82.984709h79.853211a34.759633 34.759633 0 1 1 0 69.206117h-79.226911v43.214679a847.070336 847.070336 0 0 1 89.247706 1.878899 34.446483 34.446483 0 0 1 8.768196 62.629969 257.409174 257.409174 0 0 1-72.650765 3.444648c-3.444648 4.070948-6.262997 8.141896-9.394495 12.212844 31.314985 32.880734 62.629969 62.629969 93.944954 95.510704z"  horiz-adv-x="1096" />

    
    <glyph glyph-name="gongzuotaitubiao" unicode="&#58986;" d="M1052.250353 74.330353H50.416941a45.296941 45.296941 0 0 0-34.635294 15.420235 53.549176 53.549176 0 0 0-15.781647 35.418353V846.607059A51.260235 51.260235 0 0 0 15.781647 881.242353 49.332706 49.332706 0 0 0 50.416941 896h1001.833412a53.308235 53.308235 0 0 0 36.141176-14.637176 46.742588 46.742588 0 0 0 14.155295-34.755765v-722.82353a48.188235 48.188235 0 0 0-50.416942-49.392941zM98.424471 166.972235h905.818353v632.470589H98.424471z m98.42447-279.190588v64.692706a15.781647 15.781647 0 0 0 15.781647 15.781647h675.84a15.781647 15.781647 0 0 0 15.781647-15.781647v-64.993882a15.781647 15.781647 0 0 0-15.781647-15.781647H212.630588a15.781647 15.781647 0 0 0-15.721412 16.082823z m105.773177 548.141177V504.832a15.781647 15.781647 0 0 0 15.781647 15.781647h453.330823a15.781647 15.781647 0 0 0 15.781647-15.781647v-68.848941a15.781647 15.781647 0 0 0-15.781647-15.781647H318.464a15.781647 15.781647 0 0 0-15.781647 15.781647z m198.234353-275.877648h98.42447v-200.041411H500.916706z"  horiz-adv-x="1102" />

    
    <glyph glyph-name="chukuanguanli" unicode="&#58987;" d="M1015.235727 479.688499A512.112071 512.112071 0 1 1 9.159081 287.575361a501.18944 501.18944 0 0 1 73.955309-184.319385 38.854982 38.854982 0 1 1 64.739339 42.950968 435.767436 435.767436 0 0 0 3.925321 482.643724 427.632352 427.632352 0 0 0 277.673741 182.726502 434.515885 434.515885 0 1 0-120.035156-811.460406 39.310091 39.310091 0 0 1-36.636322-69.51799 508.812526 508.812526 0 0 1 238.932537-58.595361 499.141447 499.141447 0 0 1 95.914347 9.386636 513.818732 513.818732 0 0 1 407.891973 598.241561zM467.795774 315.678379H323.696699a40.732309 40.732309 0 1 1 0-81.407729h144.099075v-128.739126a40.732309 40.732309 0 1 1 81.407729 0v128.739126h144.099075a40.732309 40.732309 0 1 1 0 81.407729H549.203503V394.639893a25.144805 25.144805 0 0 1-0.796442 8.135084h144.952406a40.732309 40.732309 0 1 1 0 81.407729H324.493141a40.732309 40.732309 0 1 1 0-81.407729h144.952405a27.704797 27.704797 0 0 1-0.796441-8.135084v-78.961514zM400.098222 518.14526a40.902975 40.902975 0 1 1 57.798918 57.798918L369.947211 663.894107a40.902975 40.902975 0 1 1-57.855807-57.798918zM607.343753 518.088371l87.949929 87.949929a40.902975 40.902975 0 1 1-57.798918 57.798918L549.544835 575.887289a40.334088 40.334088 0 0 1 0-57.798918 41.813194 41.813194 0 0 1 57.798918 0z"  horiz-adv-x="1024" />

    
    <glyph glyph-name="zhanghuguanli2" unicode="&#58988;" d="M915.424451 528.99115h-783.131214l-4.978477 18.851088A86.591937 86.591937 0 0 0 172.960122 649.873047L673.269092 879.610182a78.928439 78.928439 0 0 0 63.881132 1.734077 84.522233 84.522233 0 0 0 46.484431-45.421611z m-740.898066 51.462909h663.703703l-100.408609 234.939364a31.940566 31.940566 0 0 1-18.235769 18.012018 30.094614 30.094614 0 0 1-25.731455-0.839069L193.545286 602.829236a35.800284 35.800284 0 0 1-18.962963-22.375177zM915.480389 528.99115H36.527477v42.848465A143.536764 143.536764 0 0 0 178.050475 717.557959h140.683929l353.751557 162.220037a79.43188 79.43188 0 0 0 64.104884 1.734077 84.690047 84.690047 0 0 0 46.596307-45.421611z m-829.000328 51.406971h751.750027l-100.688298 234.939364a31.996504 31.996504 0 0 1-18.291708 18.012018 30.262428 30.262428 0 0 1-25.787392-0.839069l-363.596635-166.303507H178.162351a93.86387 93.86387 0 0 1-91.570414-85.752868zM920.738556-119.609308H103.261444A67.125533 67.125533 0 0 0 36.527477-52.931279V580.454059h884.211079a67.125533 67.125533 0 0 0 66.733967-66.678029v-566.707309a67.125533 67.125533 0 0 0-66.733967-66.678029zM86.591937 530.445537v-583.376816a16.781383 16.781383 0 0 1 16.781383-16.781384h817.477112a16.781383 16.781383 0 0 1 16.781383 16.781384V513.77603a16.781383 16.781383 0 0 1-16.781383 16.781383zM768.8111 91.780181a72.719327 72.719327 0 0 0-72.719327 72.719327v102.869879a72.831203 72.831203 0 1 0 145.718344 0v-102.869879a72.719327 72.719327 0 0 0-72.999017-72.719327z m0 197.181252a21.200481 21.200481 0 0 1-21.424232-21.424232v-102.869879a21.424232 21.424232 0 1 1 42.848465 0v102.869879a21.200481 21.200481 0 0 1-21.424233 21.424232zM284.83601 577.265596l480.339124 204.565061 20.13766-47.323501-480.339124-204.565061z"  horiz-adv-x="1024" />

    
    <glyph glyph-name="shujuzhongxin" unicode="&#58989;" d="M512.180405 895.999398a510.554053 510.554053 0 1 1 362.435551-149.564148A511.999699 511.999699 0 0 1 512.180405 895.999398z m255.999849-123.36181v-16.143049a716.136991 716.136991 0 0 0-13.97458-141.974505 69.571724 69.571724 0 0 1-55.838085-67.343019 63.307257 63.307257 0 0 1 20.96187-48.850795 690.235829 690.235829 0 0 0-55.838085-109.38723 702.644293 702.644293 0 0 0-167.574489 358.399789 666.021255 666.021255 0 0 0 172.27284 74.511015 399.660941 399.660941 0 0 0 100.111-49.091736zM670.237723 314.126799a711.559111 711.559111 0 0 1 134.987215-102.39994 818.53693 818.53693 0 0 0-153.59991-13.97458c-23.311045 0-46.561855 2.28894-69.812664 2.28894a29.455041 29.455041 0 0 1-2.349175 13.97458 928.466277 928.466277 0 0 1 90.774534 100.111zM512.180405 849.437543a427.670337 427.670337 0 0 0 76.799954-6.98729c-32.587275-13.97458-65.17455-27.888925-97.761824-44.21268a343.702386 343.702386 0 0 0-2.28894 48.91103 79.510541 79.510541 0 0 0 23.25081 2.28894zM637.891389 349.063249a816.488931 816.488931 0 0 0-83.787244-95.41265 65.054079 65.054079 0 0 1-42.164681 13.97458 67.824901 67.824901 0 0 1-65.17455-46.561855A919.370753 919.370753 0 0 0 186.126949 328.101379a720.052282 720.052282 0 0 0 100.111 218.774459c4.638115 0 9.336465-2.28894 16.14305-2.28894a68.60796 68.60796 0 0 1 69.8729 69.812665 116.615461 116.615461 0 0 1-4.638115 27.888925 853.292675 853.292675 0 0 0 86.196655 74.511015 745.893208 745.893208 0 0 1 183.898245-367.435078z m-521.456634-209.49823a478.870307 478.870307 0 0 0-69.812665 234.917509 760.289435 760.289435 0 0 1 86.076185-64.993844 889.735006 889.735006 0 0 1-16.143049-158.238025v-11.625405z m30.117629 216.48552A767.096019 767.096019 0 0 0 51.260205 432.850494a469.17243 469.17243 0 0 0 393.45671 409.599759c0-25.599985 2.28894-48.91103 4.638115-74.511015a1054.83985 1054.83985 0 0 1-111.856876-90.774535 65.716667 65.716667 0 0 1-35.05692 9.336465 68.60796 68.60796 0 0 1-69.812665-69.8729 79.450306 79.450306 0 0 1 16.143049-44.21268 661.925258 661.925258 0 0 1-102.399939-216.425284z m20.96187-283.94901c-2.228705 25.599985-4.69835 51.19997-4.69835 79.088895a604.460821 604.460821 0 0 0 13.97458 130.3491 934.730744 934.730744 0 0 1 269.97443-107.038055 4.638115 4.638115 0 0 1 2.288939-4.638115 703.30688 703.30688 0 0 0-274.190897-104.80935 19.8174 19.8174 0 0 0-6.927055 6.98729z m344.666151-153.599909a463.811492 463.811492 0 0 0-297.92359 109.387229 704.391115 704.391115 0 0 1 265.035138 109.38723 53.48891 53.48891 0 0 1 32.587275-9.336465 72.764192 72.764192 0 0 1 55.838085 27.94916c27.888925-2.28894 55.838085-4.638115 83.787245-4.638115a950.693088 950.693088 0 0 1 216.425284 25.599985 443.211033 443.211033 0 0 1 48.91103-20.96187 462.124905 462.124905 0 0 0-404.660467-237.44739z m360.748964 307.199819a687.163831 687.163831 0 0 0-176.97119 127.819219 895.216415 895.216415 0 0 1 65.17455 123.36181h6.927054a68.60796 68.60796 0 0 1 69.75243 69.99337 70.053606 70.053606 0 0 1-39.6348 62.945846 583.137539 583.137539 0 0 1 13.97458 127.999924 463.811492 463.811492 0 0 0 162.635198-353.761674 476.28019 476.28019 0 0 0-18.612695-130.288864 441.946093 441.946093 0 0 0-83.727009-28.069631z"  horiz-adv-x="1024" />

    
    <glyph glyph-name="yewuchangjingtubiao" unicode="&#58990;" d="M321.638664 252.536884a30.929503 30.929503 0 0 0 0 61.804838h358.858065a30.929503 30.929503 0 0 0 0-61.804838z m-4.387548-166.997647a30.929503 30.929503 0 0 0 0 61.804838h358.858065a30.929503 30.929503 0 0 0 0-61.804838z m-159.305897-212.985648A75.834157 75.834157 0 0 0 78.698524-42.945493V783.105148C78.698524 831.855678 102.369615 874.214472 159.949407 874.214472h505.217989a31.308673 31.308673 0 0 0 28.600311-18.633536 34.504542 34.504542 0 0 0-3.033367-35.262883 31.57951 31.57951 0 0 0-25.566944-13.487647H142.615885V-60.062345h734.50798v12.783472 53.192245 531.001602a34.504542 34.504542 0 0 0 12.675138 27.083627 30.712834 30.712834 0 0 0 19.121041 6.879242 33.042026 33.042026 0 0 0 32.17535-33.7462v-584.410516a91.16349 91.16349 0 0 0-15.546003-57.63396 73.829969 73.829969 0 0 0-60.77566-22.750247zM805.731423 845.397492l7.475081 9.695939c6.229234 8.070921 14.733493 19.121041 19.93355 25.187773a45.175491 45.175491 0 0 0 35.262883 15.654337 63.429856 63.429856 0 0 0 21.341899-3.845875 107.251165 107.251165 0 0 0 47.504683-43.712975 51.242223 51.242223 0 0 0 0-55.738106c-8.937597-12.783472-16.250177-22.262742-18.633536-25.729446l-6.770907-8.991764L805.731423 845.397492zM605.800084 425.980435a18.74187 18.74187 0 0 0-14.354322 5.850064 31.958681 31.958681 0 0 0-6.337569 23.29192 671.186459 671.186459 0 0 0 13.650148 90.350981 93.655184 93.655184 0 0 0 13.487647 28.762813c10.833451 15.600169 142.947386 200.418844 169.326839 237.035908l6.71674 9.370935 105.734482-87.480117-6.391736-9.045931c-37.375406-52.433903-159.685068-224.144102-166.618477-233.406703a102.21361 102.21361 0 0 0-21.666902-21.666902 459.229989 459.229989 0 0 0-82.984235-41.600452 39.487929 39.487929 0 0 0-10.45428-1.625018z"  horiz-adv-x="1024" />

    
    <glyph glyph-name="kaipiaoguanli2" unicode="&#58991;" d="M598.836565-32.017067h-477.866666A121.992533 121.992533 0 0 0 0.001365 90.453333v682.666667A121.992533 121.992533 0 0 0 121.106432 895.658667h905.0112A121.992533 121.992533 0 0 0 1147.222699 773.12v-344.746667a40.413867 40.413867 0 1 0-80.759467 0V773.12a40.96 40.96 0 0 1-40.3456 40.96H121.106432a40.96 40.96 0 0 1-40.3456-40.96v-682.666667a40.96 40.96 0 0 1 40.3456-40.96h477.866667a40.96 40.96 0 0 0 0-81.92zM314.642432 359.697067v46.421333H160.974165c-10.6496 1.092267-15.906133 8.6016-15.906133 22.459733 1.092267 12.765867 6.826667 19.729067 17.476267 20.821334h339.1488c9.557333-1.092267 15.36-8.055467 17.476266-20.821334-1.092267-13.653333-6.3488-21.367467-15.906133-22.459733h-142.677333v-64.1024q1.6384-47.786667-82.3296-28.8768a23.7568 23.7568 0 0 0-18.978134 22.459733 18.432 18.432 0 0 0 17.476267 19.182934 93.3888 93.3888 0 0 0 12.629333-1.6384c17.8176-2.048 26.350933 0 25.258667 6.5536zM162.544299 632.149333c-9.557333 1.092267-14.813867 8.6016-15.906134 22.459734 1.092267 12.765867 6.3488 19.729067 15.906134 20.821333h339.1488c10.513067-1.092267 16.384-8.055467 17.476266-20.821333-1.092267-13.653333-6.826667-21.367467-17.476266-22.459734H403.457365v-17.681066h64.989867c16.7936 0 25.326933-6.826667 25.326933-20.821334v-54.613333c0-16.042667-8.465067-24.098133-25.326933-24.098133H194.151765c-18.978133-1.092267-27.989333 6.417067-26.897066 22.459733V588.8c0 18.090667 7.918933 26.692267 23.825066 25.6H260.780032v17.681067z m-1.6384-280.507733c2.184533 1.092267 11.0592 7.509333 26.897066 19.182933 21.0944 14.9504 32.699733 23.005867 34.884267 24.098134a21.162667 21.162667 0 0 0 30.173867-6.417067 23.1424 23.1424 0 0 0-4.7104-30.5152q-22.186667-15.906133-64.989867-43.281067a21.572267 21.572267 0 1 0-22.186667 36.864z m26.897066 113.800533c-9.557333 1.092267-14.267733 7.509333-14.267733 19.182934 1.092267 11.741867 6.3488 17.681067 15.906133 17.681066H473.089365c18.978133-11.741867 18.978133-24.098133 0-36.864z m22.186667 110.523734v-20.821334h50.722133v20.821334z m95.163733 38.5024h50.722134v17.681066H305.153365z m0-57.7536h50.722134v19.182933H305.153365z m164.727467-235.656534a732.501333 732.501333 0 0 0-69.700267 38.5024 24.9856 24.9856 0 0 0-4.7104 30.5152 22.869333 22.869333 0 0 0 28.535467 8.055467 387.754667 387.754667 0 0 0 69.700267-38.5024 20.957867 20.957867 0 0 0 9.557333-30.5152 24.439467 24.439467 0 0 0-33.314133-7.918933zM403.389099 556.714667h47.786666v19.182933h-47.786666z m570.9824 36.727466h-354.986667a40.96 40.96 0 0 0 0 81.92h354.986667a40.96 40.96 0 0 0 0-81.92z m0-153.1904h-354.986667a40.96 40.96 0 0 0 0 81.92h354.986667a40.96 40.96 0 0 0 0-81.92z m168.209066-372.1216a58.436267 58.436267 0 0 0-0.4096 95.573334l17.885867 12.6976-7.3728 20.48a241.2544 241.2544 0 0 1-44.4416 76.936533l-14.1312 16.452267-19.524267-9.284267a57.207467 57.207467 0 0 0-81.442133 47.240533l-2.048 21.777067-21.230933 4.096a238.933333 238.933333 0 0 1-87.995734 0l-21.230933-4.096-2.048-21.777067a57.207467 57.207467 0 0 0-81.442133-47.240533l-19.524267 9.284267-13.653333-16.315734a243.780267 243.780267 0 0 1-44.4416-76.936533l-7.3728-20.48 17.885866-12.629333a58.436267 58.436267 0 0 0-0.4096-95.573334l-17.885866-12.356266 6.826666-20.821334a241.117867 241.117867 0 0 1 43.6224-77.073066l14.267734-16.9984 19.933866 9.8304a54.613333 54.613333 0 0 0 25.053867 5.7344 57.890133 57.890133 0 0 0 57.344-54.203734l1.501867-22.3232 21.777066-4.096a237.568 237.568 0 0 1 87.722667 0l21.777067 4.096 1.501866 22.3232a57.480533 57.480533 0 0 0 82.3296 48.469334l19.933867-9.8304 14.267733 16.9984a241.186133 241.186133 0 0 1 43.6224 77.073066l6.826667 20.821334z m-64.580266-57.617066a114.4832 114.4832 0 0 1-137.557334-80.896 203.1616 203.1616 0 0 0-28.808533 0 114.4832 114.4832 0 0 1-137.557333 80.896 203.9808 203.9808 0 0 0-14.267734 25.326933 116.462933 116.462933 0 0 1 0.682667 159.402667 181.521067 181.521067 0 0 0 14.9504 25.873066 114.0736 114.0736 0 0 1 103.492267 27.306667 114.688 114.688 0 0 1 32.017066 51.473067 181.998933 181.998933 0 0 0 29.9008 0 117.009067 117.009067 0 0 1 32.017067-51.473067 114.0736 114.0736 0 0 1 103.492267-27.306667 189.2352 189.2352 0 0 0 14.9504-25.873066 116.462933 116.462933 0 0 1 0.682666-159.402667 132.846933 132.846933 0 0 0-13.9264-25.122133z m-151.825067 206.984533a102.4 102.4 0 1 1 101.307733-102.4 101.9904 101.9904 0 0 1-101.239466 102.6048z m0-147.319467a44.919467 44.919467 0 1 0 44.4416 44.919467 44.714667 44.714667 0 0 0-44.373333-44.714667z m0 0"  horiz-adv-x="1160" />

    
    <glyph glyph-name="chongzhi3" unicode="&#58979;" d="M978.900109 467.256569a24.797191 24.797191 0 0 1-24.797191-27.586875 451.990798 451.990798 0 0 0 3.471607-56.227631 446.349437 446.349437 0 1 0-446.349437 446.349437 452.548735 452.548735 0 0 0 70.238043-5.455382 24.797191 24.797191 0 0 1 7.625136 48.912459 495.943819 495.943819 0 1 1 414.299068-427.751543 24.797191 24.797191 0 0 1-24.487226 21.759535zM539.617871 385.921782h232.473666a24.797191 24.797191 0 0 1 0 49.594382H599.937038l366.688461 366.688461a24.797191 24.797191 0 0 1-34.964039 34.964039L564.415062 469.674295V641.456835a24.797191 24.797191 0 1 1-49.594382 0v-230.799855a24.797191 24.797191 0 0 1 24.797191-24.735198z"  horiz-adv-x="1024" />

    
    <glyph glyph-name="tixian" unicode="&#58980;" d="M978.900109 467.256569a24.797191 24.797191 0 0 1-24.797191-27.586875 451.990798 451.990798 0 0 0 3.471607-56.227631 446.349437 446.349437 0 1 0-446.349437 446.349437 452.548735 452.548735 0 0 0 70.238043-5.455382 24.797191 24.797191 0 0 1 7.625136 48.912459 495.943819 495.943819 0 1 1 414.299068-427.751543 24.797191 24.797191 0 0 1-24.487226 21.759535zM949.081487 844.297857h-232.473665a24.797191 24.797191 0 0 1 0-49.594382h172.154498L522.073859 428.015014a24.797191 24.797191 0 0 1 34.964039-34.964039l367.246398 367.494369v-171.78254a24.797191 24.797191 0 1 1 49.594382 0V819.562659a24.797191 24.797191 0 0 1-24.797191 24.735198z"  horiz-adv-x="1024" />

    
    <glyph glyph-name="1tu" unicode="&#58981;" d="M26.713043 339.478261a480.834783 467.478261 0 1 1 961.669566 0 480.834783 467.478261 0 1 1-961.669566 0ZM418.504348 424.069565a471.930435 467.478261 90 1 1 934.956522 0 471.930435 467.478261 90 1 1-934.956522 0Z"  horiz-adv-x="2103" />

    
    <glyph glyph-name="3tu" unicode="&#58982;" d="M19.40729 343.771429a420.571429 416.914286 90 1 1 833.828571 0 420.571429 416.914286 90 1 1-833.828571 0ZM297.350147 405.942857a493.714286 490.057143 0 1 1 987.428572 0 493.714286 490.057143 0 1 1-987.428572 0Z"  horiz-adv-x="1906" />

    
    <glyph glyph-name="zhanghuhao" unicode="&#58983;" d="M540.933658 819.540479a36.229737 36.229737 0 0 0 24.267809-7.719839A28.99398 28.99398 0 0 0 574.258901 788.431823V650.264551a32.675554 32.675554 0 0 0-2.547802-12.739008 33.121419 33.121419 0 0 0-6.840847-10.458725 32.675554 32.675554 0 0 0-10.191205-7.095627 29.860233 29.860233 0 0 0-12.31862-2.611496H325.389655a30.255142 30.255142 0 0 0-12.191229 2.547801 33.121419 33.121419 0 0 0-9.961904 6.598806 31.236046 31.236046 0 0 0-6.687979 9.592473 27.936643 27.936643 0 0 0-2.547801 11.694408V788.928644a30.573617 30.573617 0 0 0 8.216659 22.025744 30.573617 30.573617 0 0 0 23.146776 8.586091zM363.963369 773.488968a23.299644 23.299644 0 0 1-8.917305-1.745244 23.669075 23.669075 0 0 1-7.465058-4.853562 22.548043 22.548043 0 0 1-5.095603-7.465058 23.439773 23.439773 0 0 1-1.872634-9.337693 22.560782 22.560782 0 0 1 1.872634-9.210302 24.458894 24.458894 0 0 1 12.5734-12.5734 21.949309 21.949309 0 0 1 8.917305-1.872634 24.076724 24.076724 0 0 1 9.579734 1.872634 22.548043 22.548043 0 0 1 7.465058 5.095603 25.567188 25.567188 0 0 1 4.980952 7.465058 24.12768 24.12768 0 0 1-4.853562 26.013053 23.490729 23.490729 0 0 1-17.184921 6.611545z m39.083275-86.115689a22.828301 22.828301 0 0 1-1.872635 9.082912 22.930213 22.930213 0 0 1-12.44601 12.44601 22.828301 22.828301 0 0 1-9.082912 1.872634H348.536432a22.140395 22.140395 0 0 1-16.43332-6.840847 22.764606 22.764606 0 0 1-6.726196-16.560709v-23.401557h77.707945v23.401557z m115.491839-24.63724a9.707124 9.707124 0 0 1 7.337668 2.547801 8.369528 8.369528 0 0 1 2.369456 5.974595 8.178443 8.178443 0 0 1-2.738887 6.101984 10.726244 10.726244 0 0 1-7.719838 2.611496h-74.1665a9.847253 9.847253 0 0 1-7.465059-2.611496 8.560613 8.560613 0 0 1-2.547801-6.101984 8.152965 8.152965 0 0 1 2.547801-5.974595 9.770819 9.770819 0 0 1 7.223017-2.547801z m0.25478 32.102298a9.273997 9.273997 0 0 1 7.223017 2.547801 8.624308 8.624308 0 0 1 2.242066 5.974595 9.273997 9.273997 0 0 1-2.114676 6.216635 8.917305 8.917305 0 0 1-7.095627 2.547802h-76.179263a9.273997 9.273997 0 0 1-7.223017-2.547802 9.630689 9.630689 0 0 1-0.12739-12.19123 8.917305 8.917305 0 0 1 7.095627-2.547801z m0.25478 31.605477a9.299475 9.299475 0 0 1 6.471416 2.547801 7.796272 7.796272 0 0 1 2.738887 5.974595 6.726196 6.726196 0 0 1-2.738887 5.605163 10.280379 10.280379 0 0 1-6.471416 2.114675H468.525141a9.770819 9.770819 0 0 1-6.369504-2.114675 6.853586 6.853586 0 0 1-2.611496-5.605163 7.96188 7.96188 0 0 1 2.611496-5.974595 8.917305 8.917305 0 0 1 6.369504-2.547801z"  horiz-adv-x="1024" />

    
    <glyph glyph-name="2tu" unicode="&#58984;" d="M1385.242545 370.877747m-26.599412-26.599411l-467.930198-467.930198q-26.599412-26.599412-53.198823 0l-467.930198 467.930198q-26.599412 26.599412 0 53.198823l467.930198 467.930197q26.599412 26.599412 53.198823 0l467.930198-467.930197q26.599412-26.599412 0-53.198823ZM794.334251 340.176471m-26.599412-26.599412l-337.64628-337.64628q-26.599412-26.599412-53.198823 0l-337.64628 337.64628q-26.599412 26.599412 0 53.198823l337.64628 337.64628q26.599412 26.599412 53.198823 0l337.64628-337.64628q26.599412-26.599412 0-53.198823Z"  horiz-adv-x="1937" />

    
    <glyph glyph-name="jiantou1" unicode="&#58977;" d="M1064.739172-110.963421a58.20038 58.20038 0 0 0 0 82.446573l342.206815 341.492992H62.103185a62.102613 62.102613 0 0 0 0 124.181433h1361.831793L1064.643995 795.663353A58.366939 58.366939 0 1 0 1147.257127 878.109926L1601.534176 424.784642a58.176586 58.176586 0 0 0 0-82.446573l-454.205666-453.277696a58.652468 58.652468 0 0 0-82.613132 0z"  horiz-adv-x="1620" />

    
    <glyph glyph-name="chongzhi2" unicode="&#58978;" d="M874.021671 745.958526A511.94134 511.94134 0 1 1 1023.93516 383.930675a508.613721 508.613721 0 0 1-149.913489 362.027851zM511.99382-56.082907a439.885596 439.885596 0 1 0 439.885596 439.885596A440.312214 440.312214 0 0 0 511.99382-55.826936zM572.402898 657.648644h-121.927362v-52.943266H268.651036v-42.405808H349.025827l-65.01655-197.18274h72.525023l-76.27926-235.706325h121.372759l76.27926 235.706325h71.117185v-235.706325h202.899417v42.405808h-81.057378v193.343179h19.496432a52.30334 52.30334 0 0 1 46.117383 69.026757l-23.037361 75.212716h-119.452979l25.042464-80.801408a15.998167 15.998167 0 0 0-14.377019-21.33089H423.93991l46.927956 154.947579h283.274208V604.620054h-182.251117V657.563321z"  horiz-adv-x="1024" />

    
    <glyph glyph-name="chongzhi1" unicode="&#58973;" d="M874.021671 745.958526A511.94134 511.94134 0 1 1 1023.93516 383.930675a508.613721 508.613721 0 0 1-149.913489 362.027851zM511.99382-56.082907a439.885596 439.885596 0 1 0 439.885596 439.885596A440.312214 440.312214 0 0 0 511.99382-55.826936zM572.402898 657.648644h-121.927362v-52.943266H268.651036v-42.405808H349.025827l-65.01655-197.18274h72.525023l-76.27926-235.706325h121.372759l76.27926 235.706325h71.117185v-235.706325h202.899417v42.405808h-81.057378v193.343179h19.496432a52.30334 52.30334 0 0 1 46.117383 69.026757l-23.037361 75.212716h-119.452979l25.042464-80.801408a15.998167 15.998167 0 0 0-14.377019-21.33089H423.93991l46.927956 154.947579h283.274208V604.620054h-182.251117V657.563321z"  horiz-adv-x="1024" />

    
    <glyph glyph-name="dianzipingzheng" unicode="&#58974;" d="M508.894208-55.9616H122.231808V590.7968a166.4512 166.4512 0 0 1 96.8704-31.3856h547.84a168.2944 168.2944 0 0 1 0 336.5888H218.334208A168.192 168.192 0 0 1 51.012608 727.7056V-128h457.8816a35.84 35.84 0 0 1 0 71.3216z m356.0448 784.384a96.9216 96.9216 0 0 0-98.2528-97.6896H353.655808a166.3488 166.3488 0 0 1 0 193.9456h413.0304a96.9216 96.9216 0 0 0 96.8704-96.9728zM218.334208 824.6784A97.024 97.024 0 1 0 122.180608 727.7056a96.8192 96.8192 0 0 0 96.1536 96.9728zM970.001408 210.5856a18.0736 18.0736 0 0 1-15.872 8.6528h-107.52l-54.1184 91.6992a18.7904 18.7904 0 0 1-31.0272 0l-54.8864-91.6992h-107.52a18.0224 18.0224 0 0 1-15.872-27.4432l51.2-93.1328-50.5344-93.1328a18.0224 18.0224 0 0 1 15.872-27.4432h106.8544l54.1184-93.1328a18.0224 18.0224 0 0 1 31.0272 0l54.1184 93.1328h107.52a18.0224 18.0224 0 0 1 15.872 26.7264l-54.1184 93.1328 54.1184 93.1328a18.0736 18.0736 0 0 1 0.768 19.5072z m-90.2144-102.4a18.0736 18.0736 0 0 1 0-18.0736l43.3152-72.192h-87.2448a18.0224 18.0224 0 0 1-15.872-9.3696l-43.3152-72.192-43.3152 72.192a18.0224 18.0224 0 0 1-15.872 8.6528h-86.6304l43.3152 72.192a18.0224 18.0224 0 0 1 0 18.0224l-43.3152 72.192h87.3472a18.0224 18.0224 0 0 1 15.872 8.6528l43.3152 72.192 43.3152-72.192a18.0224 18.0224 0 0 1 15.872-9.3696h86.6304z m-277.9136 288.768a18.0224 18.0224 0 0 1-18.0224 18.0736H288.580608a18.0224 18.0224 0 0 1 0-35.84h295.2704a18.0736 18.0736 0 0 1 18.1248 17.664zM288.580608 215.04a18.0224 18.0224 0 0 1 0-35.84h144.384a18.0224 18.0224 0 1 1 0 35.84z"  horiz-adv-x="1024" />

    
    <glyph glyph-name="shangchuanxiazai" unicode="&#58975;" d="M941.74521 641.160164a298.338741 298.338741 0 0 0 0-596.216845h-40.945444a42.634443 42.634443 0 0 0 0 85.166523h40.945444a213.069854 213.069854 0 0 1 0 425.832616 181.439498 181.439498 0 0 1-35.827264-3.42918 39.717081 39.717081 0 0 0-32.03981 7.216634 42.941534 42.941534 0 0 0-16.685268 29.378356 244.495482 244.495482 0 0 1-486.227146 0 42.941534 42.941534 0 0 0-16.685269-29.378356 39.717081 39.717081 0 0 0-32.03981-7.216634 181.439498 181.439498 0 0 1-35.827263 3.42918 213.069854 213.069854 0 0 1 0-425.832616h40.945444a42.634443 42.634443 0 0 0 0-85.166523h-40.945444a298.338741 298.338741 0 0 0 0 596.216845h10.645815a324.543825 324.543825 0 0 0 633.835472 0zM657.379102-84.751375a43.248625 43.248625 0 0 0-86.446069 0v388.981717a43.248625 43.248625 0 1 0 86.446069 0zM495.388689 99.349577a43.248625 43.248625 0 1 0-64.847346 57.067713l151.293415 172.892136a43.248625 43.248625 0 0 0 64.847347 0l151.293415-172.892136a43.248625 43.248625 0 0 0-64.847347-57.067713l-118.895333 135.734147z"  horiz-adv-x="1228" />

    
    <glyph glyph-name="fapiaoshenqing1" unicode="&#58976;" d="M1152.285698-128H137.017799A140.651291 140.651291 0 0 0 0 7.962914V759.978481A140.651291 140.651291 0 0 0 137.017799 896h1015.267899A140.651291 140.651291 0 0 0 1289.303497 759.978481v-752.015567a140.651291 140.651291 0 0 0-137.017799-135.962914zM137.017799 808.092943a51.806559 51.806559 0 0 1-48.348881-47.997253v-752.132776a51.806559 51.806559 0 0 1 48.348881-47.997253h1015.267899a51.806559 51.806559 0 0 1 48.348881 47.997253V759.978481a51.806559 51.806559 0 0 1-48.348881 47.997253z m217.540663-504.000457v56.026097H185.308075a21.273508 21.273508 0 0 0-24.145138 24.027929c0 15.999084 8.028845 24.027929 16.116294 24.027929h386.791049c8.028845 0 16.116294-8.028845 16.116294-24.027929s-8.028845-24.027929-16.116294-24.027929h-161.162937v-72.025182c0-40.027013-24.203743-47.997253-88.610313-31.998168a21.273508 21.273508 0 0 0-24.145139 24.027928c0 15.999084 8.028845 15.999084 16.116294 24.027929H322.325874c24.203743-8.146054 32.232587-8.146054 32.232588-0.058604zM185.308075 608.016483c-8.028845 0-16.116294 8.028845-16.116293 24.027928s8.087449 24.027929 16.116293 24.027929h378.762205c8.028845 0 16.116294-8.028845 16.116294-24.027929s-8.028845-24.027929-16.116294-24.027928H451.256224v-15.999085h72.552624c16.116294 0 32.232587-8.028845 32.232587-24.027929v-56.026097c0-15.999084-8.028845-24.027929-32.232587-24.027929H217.540663c-24.145138 0-32.232587 8.028845-32.232588 24.027929v47.997253c0 15.999084 8.028845 31.998169 24.145139 31.998169H290.093287v15.999084z m0-312.011447a139.127568 139.127568 0 0 1 32.232588 24.027929 139.127568 139.127568 0 0 0 32.232587 24.027929c16.116294 8.028845 24.203743 8.028845 32.232588-8.028845a19.749785 19.749785 0 0 0-8.028845-31.998168c-8.028845-8.028845-32.232587-24.027929-64.465175-47.997253-16.116294-8.028845-32.232587-8.028845-40.261432 8.028844 0 15.999084 0 24.027929 16.116294 31.998169z m24.145139 127.992675c-8.028845 0-16.116294 8.028845-16.116294 24.027929s8.028845 15.999084 16.116294 15.999084h314.355634c24.203743-15.999084 24.203743-24.027929 0-40.027013z m24.203742 120.022434v-24.027928h56.436331v24.027928z m112.814056 40.027013h56.436331v24.027929h-56.377726v-24.027929z m0-63.996337h56.436331v24.027929h-56.377726v-24.027929z m177.279231-255.985349A366.396612 366.396612 0 0 1 451.256224 304.092486c-8.028845 8.028845-16.116294 24.027929-8.028845 31.998168s16.116294 15.999084 32.232588 8.028845a747.678819 747.678819 0 0 1 80.581468-40.027013c16.116294-8.028845 16.116294-15.999084 8.08745-31.998169s-24.203743-15.999084-40.261432-8.028845zM451.256224 519.992217h56.43633v24.027928H451.256224z m644.651748 40.027013h-402.907342a47.997253 47.997253 0 1 0 0 95.994505h394.819893a51.806559 51.806559 0 0 0 48.348881-47.997252 44.891204 44.891204 0 0 0-40.261432-47.997253z m0-159.990843h-402.907342a37.917244 37.917244 0 0 0-40.261432 40.027013 51.806559 51.806559 0 0 0 48.348881 47.997253H1095.907972a51.806559 51.806559 0 0 0 48.348881-47.997253 50.986093 50.986093 0 0 0-48.348881-40.085618z m-169.191781-168.019688h-233.715561a47.997253 47.997253 0 1 0 0 95.994506h233.656956a47.997253 47.997253 0 1 0 0-95.994506z"  horiz-adv-x="1289" />

    
    <glyph glyph-name="shequdianshanghangye" unicode="&#58963;" d="M854.908412 56.372428H202.243734a81.861642 81.861642 0 0 0-80.997547 68.581864L0.454787 848.201897a41.067257 41.067257 0 0 0 80.997547 13.643607l28.969925-173.683117h874.919035a81.861642 81.861642 0 0 0 79.087442-104.146199l-128.841128-462.700191a82.862173 82.862173 0 0 0-80.679196-64.807133zM124.247781 605.936916l77.995953-467.475453h652.619199c0 1.000531 1.000531 2.501328 1.273404 3.501859l129.204957 463.882637zM711.60506-66.420035a61.578146 61.578146 0 1 1 61.578146 61.578146 61.578146 61.578146 0 0 1-61.578146-61.578146zM245.721361-66.420035a61.578146 61.578146 0 1 1 61.578146 61.578146 61.578146 61.578146 0 0 1-61.578146-61.578146zM745.395727 226.599164H334.905072a40.930821 40.930821 0 0 0-40.930821 40.930821v61.578146h492.57969v-61.578146a40.930821 40.930821 0 0 0-41.158214-40.930821z"  horiz-adv-x="1067" />

    
    <glyph glyph-name="wuliupeisonghangye" unicode="&#58964;" d="M1265.838791 448.636582a46.886587 46.886587 0 0 1-10.214942 16.088535l-249.091379 249.091379a41.779116 41.779116 0 0 1-34.730806 12.717604h-209.406326A169.976647 169.976647 0 0 1 593.082662 896H169.468986A169.976647 169.976647 0 0 1 0.003086 726.5341V91.062512a41.93234 41.93234 0 0 1 42.340938-42.340938h42.340938a169.4659 169.4659 0 1 1 338.9318 0h423.66475a169.4659 169.4659 0 1 1 338.931801 0h42.340937a41.93234 41.93234 0 0 1 42.340938 42.340938V429.994312a34.168983 34.168983 0 0 1-5.056397 18.64227zM254.201937-36.011376a84.73295 84.73295 0 1 0 84.73295 84.73295 84.988324 84.988324 0 0 0-84.73295-84.73295z m423.66475 169.4659H399.918095a167.678285 167.678285 0 0 1-291.483391 0h-23.698668V726.5341a84.988324 84.988324 0 0 0 84.73295 84.73295h423.664751a84.988324 84.988324 0 0 0 84.73295-84.73295z m338.9318-169.4659a84.73295 84.73295 0 1 0 84.73295 84.73295 84.988324 84.988324 0 0 0-84.784024-84.73295z m169.4659 169.4659h-23.800816a167.678285 167.678285 0 0 1-291.483391 0H762.548562V641.852224h191.479102l232.134574-232.134573z"  horiz-adv-x="1279" />

    
    <glyph glyph-name="jiaoyuhangye" unicode="&#58965;" d="M731.679037 330.02795a204.752615 204.752615 0 0 0-69.514484 12.414993L27.19926 574.394817a41.32013 41.32013 0 0 0 0 77.570014L661.548542 883.916705a208.259139 208.259139 0 0 0 139.73975 0L1435.637575 651.964831a41.32013 41.32013 0 0 0 0-77.570014L801.288292 342.442943a204.752615 204.752615 0 0 0-69.514484-12.414993z m-41.699213 90.743174a123.202221 123.202221 0 0 1 82.687645 0l528.253216 193.143175-528.253216 193.143174a127.940768 127.940768 0 0 1-82.687645-0.710782L162.43739 613.203517zM731.679037-127.952615a771.624988 771.624988 0 0 0-299.997408 68.045535c-71.078205 31.463952-155.85081 79.749745-155.85081 130.973438V499.099306a41.699213 41.699213 0 0 0 83.398427 0v-419.977418a619.707173 619.707173 0 0 1 744.852198 0V499.099306a41.699213 41.699213 0 0 0 41.699213 41.699213 41.225359 41.225359 0 0 0 41.699213-41.699213v-428.032948c0-51.223693-84.867376-99.509486-155.850809-130.973438a771.624988 771.624988 0 0 0-299.997409-68.045535z m375.340306 210.723184z m-750.680611 0z m-224.607126 59.279223a27.767885 27.767885 0 0 0-27.815271 27.81527V578.849051a27.815271 27.815271 0 0 0 55.583156 0v-408.983989a27.767885 27.767885 0 0 0-27.767885-27.862656zM62.927904 158.160851a68.756317 68.756317 0 1 1 68.756316 68.756317 68.756317 68.756317 0 0 1-68.756316-68.756317z"  horiz-adv-x="1462" />

    
    <glyph glyph-name="zhibohangye" unicode="&#58966;" d="M1012.549923-127.931965H238.959215A233.264361 233.264361 0 0 0 0.071516 110.955734V431.833079h113.7858v-320.877345a126.282105 126.282105 0 0 1 124.963051-124.963051h773.590708a126.282105 126.282105 0 0 1 124.963051 124.963051v147.872944l216.186078-102.400278a192.234826 192.234826 0 0 1 56.858188-22.771045V656.974842l-273.044266-113.7858V656.974842a126.282105 126.282105 0 0 1-124.963051 124.963051H238.959215a126.282105 126.282105 0 0 1-124.963051-124.963051v-251.453428H0.071516V656.974842A233.264361 233.264361 0 0 0 238.959215 895.931965h773.590708a256.174254 256.174254 0 0 0 238.887699-182.029511l113.7858 45.472666a114.757735 114.757735 0 0 0 115.03543 0c0.833087 2.429837 53.386992-22.771045 55.539134-102.400278v-523.317487a111.078267 111.078267 0 0 0-45.472666-102.400278c-45.472666-34.156567-113.7858-11.385522-170.643988 22.771045l-56.858188 22.771045a256.868493 256.868493 0 0 0-250.273221-204.731132zM739.505657 384a113.7858 113.7858 0 1 1 113.7858 113.7858 113.7858 113.7858 0 0 1-113.7858-113.7858z"  horiz-adv-x="1536" />

    
    <glyph glyph-name="peixunfuwuhangye" unicode="&#58967;" d="M789.143583 372.840192a35.030789 35.030789 0 0 1-30.877138 33.579513c-17.815658 0-38.383736-8.207213-40.435539-22.619881l-78.819275-279.045255-16.46447 27.424104a397.649497 397.649497 0 0 1-137.120516 137.120516l-19.21689 9.608445 13.712051 13.011435a217.341022 217.341022 0 0 1 77.468087 165.145148 222.845861 222.845861 0 0 1-445.641677 0 218.041638 218.041638 0 0 1 76.767472-165.145148l17.165086-13.011435-17.165086-9.608445A362.01818 362.01818 0 0 1 0-17.953279a37.032548 37.032548 0 0 1 37.032548-37.032548 37.733164 37.733164 0 0 1 37.733164 37.032548 288.6537 288.6537 0 0 0 259.878409 255.724758 292.05669 292.05669 0 0 0 259.878409-255.724758 29.475907 29.475907 0 0 1 6.856025-18.516274 37.032548 37.032548 0 0 1 30.877138-27.424104h6.856026a37.733164 37.733164 0 0 1 32.928942 24.021113z m-454.549506-61.704233a146.028345 146.028345 0 1 0 148.780764 146.028346 146.028345 146.028345 0 0 0-148.780764-146.028346z m582.111621 403.154335h-327.087479a32.228326 32.228326 0 0 1-30.02639-33.579513 32.928941 32.928941 0 0 1 30.02639-34.280129h327.037435a32.928941 32.928941 0 0 1 30.877138 34.280129 32.228326 32.228326 0 0 1-30.877138 33.579513z m0-162.492816h-162.492816a34.280129 34.280129 0 0 1 0-68.560258h163.844004a34.280129 34.280129 0 1 1 0 68.560258zM1097.014173 700.578243a190.617535 190.617535 0 0 1-185.813313 195.171537H242.012706a191.268107 191.268107 0 0 1-186.513928-195.171537V640.275242a37.733164 37.733164 0 0 1 37.733164-37.032548 37.032548 37.032548 0 0 1 37.032548 37.032548V700.578243a117.253054 117.253054 0 0 0 111.748216 122.057276h669.38833a117.253054 117.253054 0 0 0 111.748216-122.057276v-633.506793a116.552439 116.552439 0 0 0-111.748216-121.356662h-148.98094a37.032548 37.032548 0 1 1 0-73.36448h148.98094a190.617535 190.617535 0 0 1 185.613137 193.920438z"  horiz-adv-x="1097" />

    
    <glyph glyph-name="jianzhuhangye" unicode="&#58968;" d="M542.059904 670.965191V717.952878h-60.294321v-46.987687a365.7361 365.7361 0 0 1-335.283541-363.990967v-434.974224h730.992288v434.974224a365.779728 365.779728 0 0 1-335.414426 363.990967z m-30.147161-58.76733a305.398151 305.398151 0 0 0 303.696647-274.858336H208.303353a305.398151 305.398151 0 0 0 303.60939 274.858336zM206.776362-67.749308v344.663628H817.180009v-344.663628zM148.358059 853.855055V896H88.063738v-42.01406A88.434579 88.434579 0 0 1 29.689063 771.092156v-898.74313h177.087299v898.74313A88.390951 88.390951 0 0 1 148.358059 853.855055z m-30.14716-54.579012a28.314771 28.314771 0 0 0 28.227514-28.227515v-22.904861H89.939755v22.904861a28.314771 28.314771 0 0 0 28.271144 28.227515z m-28.227515-866.981722V687.805718h56.498658v-755.424141H89.983384zM935.849005 853.855055V896h-60.29432v-42.01406a88.434579 88.434579 0 0 1-58.374676-82.893784v-898.74313h177.0873v898.74313A88.390951 88.390951 0 0 1 935.849005 853.855055z m-30.14716-54.579012a28.314771 28.314771 0 0 0 28.227515-28.227515v-22.904861h-56.498658v22.904861a28.314771 28.314771 0 0 0 28.271143 28.227515z m-28.227515-866.981722V687.805718h56.498658v-755.424141h-56.498658zM598.645818-128H435.345064v169.58323a81.672191 81.672191 0 0 0 163.300754 0z m-103.006433 60.294321h42.712113v109.288909a21.377871 21.377871 0 1 1-42.712113 0z"  horiz-adv-x="1024" />

    
    <glyph glyph-name="hujiaozhongxin" unicode="&#58969;" d="M761.241978 237.571935a114.566994 114.566994 0 0 1-57.181296 17.936224 149.008633 149.008633 0 0 1-77.365937-35.770248 532.312391 532.312391 0 0 0-64.744149-43.844104 42.311093 42.311093 0 0 0-17.936224-5.621039 123.356255 123.356255 0 0 0-59.429712 23.557263l-2.248416 2.248416a433.484306 433.484306 0 0 0-88.608014 69.547582 618.978592 618.978592 0 0 0-69.547582 88.608015l-2.401717 2.197315c-7.869455 10.220071-33.624033 54.932881-17.936224 77.365936 17.936224 28.054095 33.624033 49.362942 43.741903 65.050751 33.624033 47.114527 51.560257 72.869105 17.936224 134.547233-72.869105 130.101502-144.665103 197.349568-213.088477 197.349569a91.980638 91.980638 0 0 1-25.550177-2.248416c-86.359599-25.550177-155.856081-163.521134-114.362593-326.326863a870.545636 870.545636 0 0 1 223.155247-396.947552 869.268127 869.268127 0 0 1 396.947552-223.155247 342.014671 342.014671 0 0 1 90.85643-10.220071c114.362593 0 213.088477 54.932881 233.273118 130.101502 12.315185 48.238734-7.869455 131.22571-195.101153 235.470433z m118.859424-215.285793c-7.869455-28.054095-67.299167-69.547582-158.104496-69.547582a322.392135 322.392135 0 0 0-72.869105 7.869454 802.735466 802.735466 0 0 0-363.119118 201.8464 786.945456 786.945456 0 0 0-201.846399 359.950896C56.108189 639.016318 103.222716 739.939518 149.213035 753.430011h2.248415c5.621039 0 59.429712-5.621039 142.416688-152.483457a42.770997 42.770997 0 0 0 8.993662-19.060432 99.901193 99.901193 0 0 0-20.440142-35.770248c-13.439393-17.936224-28.054095-39.245072-47.114526-69.547582a150.746045 150.746045 0 0 1 20.440141-163.521134 831.096162 831.096162 0 0 1 80.73856-100.9232 615.094965 615.094965 0 0 1 100.820999-80.84076 216.665502 216.665502 0 0 1 106.544239-35.770248 115.486801 115.486801 0 0 1 57.181296 15.687809 593.990518 593.990518 0 0 1 69.547583 47.114526 183.041469 183.041469 0 0 0 33.624033 20.440142 40.267079 40.267079 0 0 0 17.936224-7.869455c143.540895-78.490144 163.521134-132.298817 158.104496-148.191027z m-318.150806 524.800639a91.009731 91.009731 0 0 0 93.053746-20.440142 82.578173 82.578173 0 0 0 23.557263-75.117521 53.34877 53.34877 0 0 0-5.621039-20.440142 25.550177 25.550177 0 0 1 14.563601-32.499825 12.059684 12.059684 0 0 1 8.993662-2.248415 22.944059 22.944059 0 0 1 23.557264 16.812016 60.298418 60.298418 0 0 1 8.993662 31.375618 137.970957 137.970957 0 0 1-186.158591 150.286142 25.550177 25.550177 0 0 1-14.563601-32.499826 25.550177 25.550177 0 0 1 33.624033-15.687808zM561.848396 682.758221a200.057887 200.057887 0 0 0 245.588302-245.588302 25.550177 25.550177 0 0 1 17.936225-32.499826h7.869454a23.557263 23.557263 0 0 1 23.557264 16.812017 249.47193 249.47193 0 0 1-307.266431 307.26643 25.550177 25.550177 0 0 1-17.936224-29.178302 21.104446 21.104446 0 0 1 30.25141-16.812017zM917.30246 789.30246A357.089276 357.089276 0 0 1 558.424672 880.10779a24.936973 24.936973 0 0 1-17.936224-32.499826 28.667299 28.667299 0 0 1 31.375617-16.812016 312.529767 312.529767 0 0 0 309.514846-78.490144 305.78452 305.78452 0 0 0 77.365937-308.390639 25.550177 25.550177 0 0 1 17.936224-32.499825h7.869454a20.440142 20.440142 0 0 1 23.557264 16.812017 359.746494 359.746494 0 0 1-90.85643 361.075103z"  horiz-adv-x="1024" />

    
    <glyph glyph-name="gongxiangjingji" unicode="&#58970;" d="M616.733663 328.001464l416.076148 430.88413a39.362987 39.362987 0 1 1-56.560864 54.639575l-361.530294-374.370126-181.491488 175.305876-377.884679-391.3337a39.362987 39.362987 0 1 1 56.560864-54.639575l323.338825 334.819696 181.538349-175.305876zM982.528281 896a117.901519 117.901519 0 0 0 117.901519-117.901519v-550.238331a117.901519 117.901519 0 0 0-117.901519-117.901519H589.507597v-43.861615l193.581548-120.947464a39.316127 39.316127 0 0 0 14.71426-50.094088l-2.202453-4.03002a39.316127 39.316127 0 0 0-54.170968-12.511807l-191.566539 119.682226-198.080176-119.96339a39.316127 39.316127 0 1 0-40.721947 67.198243L510.781622 66.565623v43.486729H117.901519A117.901519 117.901519 0 0 0 0 227.86015V778.098481A117.901519 117.901519 0 0 0 117.901519 896z m0-78.585393H117.901519a39.316127 39.316127 0 0 1-39.316126-39.316126v-550.238331a39.316127 39.316127 0 0 1 39.316126-39.316127h864.626762a39.316127 39.316127 0 0 1 39.316127 39.316127V778.098481a39.316127 39.316127 0 0 1-39.316127 39.316126z"  horiz-adv-x="1100" />

    
    <glyph glyph-name="xinlingshou" unicode="&#58971;" d="M699.77091 705.329078a51.215669 51.215669 0 1 1 51.215669 51.215669 51.215669 51.215669 0 0 1-51.305207-51.215669zM1007.288769 568.291348l-98.491671 240.185371A140.395401 140.395401 0 0 1 778.564247 896H257.050847a38.456521 38.456521 0 0 1 0-76.868273h521.5134a63.840511 63.840511 0 0 0 59.274078-39.75482l98.491672-240.185371a64.2882 64.2882 0 0 0-19.743104-74.674595l-41.545577-32.681327a64.064355 64.064355 0 0 0-81.166091 1.70122l-115.682945 98.715516-123.472741-99.207975a63.974817 63.974817 0 0 0-81.882394 1.343069L359.661261 531.625585l-135.963276-102.252263a63.795742 63.795742 0 0 0-79.688716 2.104141l-38.187907 31.920255a63.795742 63.795742 0 0 0-18.131421 73.376295l99.431819 242.513356a63.750973 63.750973 0 0 0 59.274079 39.75482h6.133344a38.456521 38.456521 0 0 1 0 76.868273h-6.31242a140.395401 140.395401 0 0 1-130.367158-87.523281L16.596862 565.918594a140.126787 140.126787 0 0 1 26.145061-147.737507v-402.920474a143.260613 143.260613 0 0 1 143.260613-143.260613h648.388581a143.260613 143.260613 0 0 1 143.260613 143.260613v401.39833a141.335548 141.335548 0 0 1 29.771346 151.632405z m-172.897652-619.333537H185.86823a66.39234 66.39234 0 0 0-66.302803 66.302802v340.91549a139.097101 139.097101 0 0 1 150.289337 11.774231l86.583133 65.13881 66.302802-56.990862a141.156473 141.156473 0 0 1 180.105452-2.95475l73.823985 59.318847 67.153412-57.393783a141.29078 141.29078 0 0 1 156.691295-17.638963v-342.16902a66.39234 66.39234 0 0 0-66.302802-66.302802z"  horiz-adv-x="1024" />

    
    <glyph glyph-name="shenghuofuwu" unicode="&#58972;" d="M854.878926-127.961955L442.733692-127.42932a31.958091 31.958091 0 1 0 0 63.916182l412.031097-0.532635a5.098076 5.098076 0 0 1 5.021986 5.098076v362.153649a50.410084 50.410084 0 0 0 50.181812 50.486174h93.895914a5.136122 5.136122 0 0 1 3.804534 8.293886l-467.957756 468.452345a5.060031 5.060031 0 0 1-7.609069 0l-0.798953-0.836997-466.473987-467.577303a5.136122 5.136122 0 0 1 3.804534-8.293885h78.715821a50.410084 50.410084 0 0 0 50.181812-50.486175v-362.153649a5.098076 5.098076 0 0 1 5.098076-5.098076h236.109418a31.958091 31.958091 0 1 0 0-63.916181H202.81974a68.900122 68.900122 0 0 0-68.481623 69.014257v348.723642H68.785986a67.682671 67.682671 0 0 0-62.927003 41.545518A68.481623 68.481623 0 0 0 18.64222 405.966432l0.798952 0.836997L486.752157 874.64705a68.481623 68.481623 0 0 0 99.336399 0l467.957756-468.642573a68.481623 68.481623 0 0 0 12.783236-74.606924 67.720716 67.720716 0 0 0-62.927002-41.545517h-80.389816v-348.723642a68.900122 68.900122 0 0 0-68.633804-69.090349zM682.685689 422.744429a104.662747 104.662747 0 0 1-143.469 3.157764 104.662747 104.662747 0 0 1-143.507045-3.157764 102.494162 102.494162 0 0 1 0-145.903902l120.109158-119.119978a32.642907 32.642907 0 0 1 46.567503 0l120.223294 119.005842a102.494162 102.494162 0 0 1 0 145.979993z m8.141704-73.237291z"  horiz-adv-x="1072" />

    
    <glyph glyph-name="zaixiancaozuo" unicode="&#58950;" d="M1076.600697 895.999461H54.568392A54.837866 54.837866 0 0 1 0 841.323279v-731.351194a54.837866 54.837866 0 0 1 54.568392-54.676181H401.246105v-91.351531l-73.162067-73.916593V-128h313.074361a347.62087 347.62087 0 0 0-178.122011 303.534998c0 8.407575 0.592842 16.815149 1.212631 25.842513H72.569225V823.295499h986.057586v-405.638523A353.010341 353.010341 0 0 0 1131.788878 305.286509V841.323279A54.972603 54.972603 0 0 1 1076.600697 895.999461zM540.294452 168.932896a279.713537 279.713537 0 1 1 279.713537 279.713537 279.713537 279.713537 0 0 1-279.713537-279.713537zM775.625697 27.001182l-5.928418-5.389471a24.495145 24.495145 0 0 0-34.438719 2.964209l-112.23573 133.039088a24.495145 24.495145 0 0 0 2.964209 34.438718l5.928418 5.389471a24.495145 24.495145 0 0 0 34.438719-2.964209l112.23573-133.039088a23.902303 23.902303 0 0 0-2.964209-34.438718zM741.618136 21.665605l-5.389471 5.928418a24.495145 24.495145 0 0 0 2.964209 34.438719l254.760287 214.39315a24.495145 24.495145 0 0 0 34.438719-2.964209l5.389471-5.928417a24.495145 24.495145 0 0 0-2.964209-34.438719l-254.760287-214.393151a25.061039 25.061039 0 0 0-34.438719 2.964209z"  horiz-adv-x="1131" />

    
    <glyph glyph-name="zhuanyeshuiwu" unicode="&#58956;" d="M838.740912 457.397539A249.128169 249.128169 0 0 1 914.437548 731.739669a243.18742 243.18742 0 0 1-459.928927 0 249.128169 249.128169 0 0 1 75.696636-274.396884A440.929482 440.929482 0 0 1 249.347467 45.514758v-5.1742a436.494454 436.494454 0 0 1 9.882997-88.426812q44.295536-9.089072 90.644326-16.426033A2181.130808 2181.130808 0 0 1 684.336201-89.561987a2181.924733 2181.924733 0 0 1 334.625672 25.13183 1854.49914 1854.49914 0 0 1 90.699079 16.426033 440.765222 440.765222 0 0 1 9.828243 88.426812v5.1742A441.011613 441.011613 0 0 1 838.768289 457.424916zM523.607467 648.733448a163.110509 163.110509 0 0 0 80.92559 141.044871 159.140884 159.140884 0 0 0 160.42759-0.410651 162.042817 162.042817 0 1 0-241.35318-140.63422z m512.163713-625.01056A2073.622422 2073.622422 0 0 0 684.418331-5.214307a2079.782184 2079.782184 0 0 0-351.051704 28.882441q-0.711795 10.950689-0.711795 21.901378a351.84563 351.84563 0 1 0 703.581752 0c0-7.282208-0.273767-14.591793-0.739171-21.901378zM1368.836378 118.391592v-4.024378a342.893441 342.893441 0 0 0-7.720235-69.23573c-23.21546-4.76355-47.087962-9.034318-71.179477-12.839682q-53.11084-8.213017-109.096237-13.086073c0.355897 6.51566 0.602288 13.086073 0.657041 19.574356v6.51566q0 20.176644-1.615226 40.07952a1582.566161 1582.566161 0 0 1 122.976234 15.960629 271.577081 271.577081 0 0 1 0.547535 17.055698 278.092741 278.092741 0 0 1-265.82797 278.476015 499.816811 499.816811 0 0 1-100.363062 79.392493c3.42209 5.064694 6.707297 10.238894 9.746113 15.549978a125.741284 125.741284 0 0 1 162.152324 1.998501 128.068305 128.068305 0 0 1 26.883941 161.112008 125.932921 125.932921 0 0 1-152.597848 55.300978 305.058812 305.058812 0 0 1-20.149267 63.267605 190.952635 190.952635 0 0 0 159.715795-15.385718 193.608177 193.608177 0 0 0 92.478566-132.092683 188.899381 188.899381 0 0 0 3.230454-35.124334 193.41654 193.41654 0 0 0-70.65932-149.750669A345.302593 345.302593 0 0 0 1368.836378 118.391592z m-1303.131961 0c0-6.022879 0-11.44347 0.547534-17.110451 39.58674-6.816804 80.76133-12.045758 122.976235-15.905876q-1.615227-19.8755-1.615227-40.07952v-6.460907c0-6.51566 0-13.086073 0.602288-19.574356a1575.557721 1575.557721 0 0 0-109.041483 13.003943q-36.438417 5.666981-71.179477 12.839682A342.866065 342.866065 0 0 0 0.000284 114.668358v3.723234a345.24784 345.24784 0 0 0 220.848016 322.415653 193.41654 193.41654 0 0 0-70.714073 150.051813 188.899381 188.899381 0 0 0 3.230453 35.124334 192.513108 192.513108 0 0 0 252.194362 147.478401 305.058812 305.058812 0 0 1-20.03976-62.96646 124.810475 124.810475 0 0 1-106.249058-9.225956 127.767161 127.767161 0 0 1 11.580354-226.788764 125.631777 125.631777 0 0 1 131.079744 17.548479c3.038816-5.311084 6.351399-10.485284 9.746113-15.549978a499.816811 499.816811 0 0 1-100.363062-79.392493A278.037987 278.037987 0 0 1 65.704417 118.391592z"  horiz-adv-x="1422" />

    
    <glyph glyph-name="fanganhegui" unicode="&#58957;" d="M308.065897 398.35437l-149.413852 89.488035a24.776165 24.776165 0 0 1-34.748961-8.392286 25.176857 25.176857 0 0 1 8.392286-34.748961l149.814545-89.888727a25.354943 25.354943 0 1 1 25.955982 43.541939z m159.787341-525.352638a25.176857 25.176857 0 0 1 19.166467 2.404156 26.712846 26.712846 0 0 0-19.56716-2.404156z m-159.787341 525.352638l-149.413852 89.488035a24.776165 24.776165 0 0 1-34.748961-8.392286 25.176857 25.176857 0 0 1 8.392286-34.748961l149.814545-89.888727a25.354943 25.354943 0 1 1 25.955982 43.541939z m0 0l-149.413852 89.488035a24.776165 24.776165 0 0 1-34.748961-8.392286 25.176857 25.176857 0 0 1 8.392286-34.748961l149.814545-89.888727a25.354943 25.354943 0 1 1 25.955982 43.541939z m0 0l-149.413852 89.488035a24.776165 24.776165 0 0 1-34.748961-8.392286 25.176857 25.176857 0 0 1 8.392286-34.748961l149.814545-89.888727a25.354943 25.354943 0 1 1 25.955982 43.541939z m0 0l-149.413852 89.488035a24.776165 24.776165 0 0 1-34.748961-8.392286 25.176857 25.176857 0 0 1 8.392286-34.748961l149.814545-89.888727a25.354943 25.354943 0 1 1 25.955982 43.541939z m0 0l-149.413852 89.488035a24.776165 24.776165 0 0 1-34.748961-8.392286 25.176857 25.176857 0 0 1 8.392286-34.748961l149.814545-89.888727a25.354943 25.354943 0 1 1 25.955982 43.541939zM474.086235-124.638634a25.176857 25.176857 0 0 0-19.166467-2.404156 26.712846 26.712846 0 0 1 19.166467 2.404156zM483.41347-59.681896v443.655851l383.30708 222.228618 38.644584 24.041562a24.887468 24.887468 0 0 1 10.440271 16.940396 24.486776 24.486776 0 0 1-13.534509 24.820686L469.878962 893.054018a22.794962 22.794962 0 0 1-22.41653 0L13.912941 672.005217a42.606989 42.606989 0 0 1-13.55677-37.041813v-472.817375a26.111807 26.111807 0 0 1 11.97626-21.659666s425.045902-261.229374 431.212117-264.390393a31.89959 31.89959 0 0 1 31.298551 0l141.043827 83.143733a25.555289 25.555289 0 0 1 11.775913 15.582494 26.045025 26.045025 0 0 1-2.51546 19.500377 25.24364 25.24364 0 0 1-34.392789 9.4608l-97.368324-57.877833-10.039578-5.899087m-49.841718 444.056544v-443.655851L49.329722 176.726791V606.603266z m24.731643 43.742285L77.244646 649.633209l381.370399 193.067095 381.370399-193.067095zM793.883523-18.788981a29.940648 29.940648 0 0 0-15.582493 4.786051l-204.531358 122.233532a23.574087 23.574087 0 0 0-11.575566 20.368545v220.915237a31.164987 31.164987 0 0 0 20.769237 29.161523l199.745307 99.46083a26.356675 26.356675 0 0 0 10.774181 2.404156 23.173394 23.173394 0 0 0 10.395749-2.404156l199.745306-99.861523 5.587437-2.003463a23.173394 23.173394 0 0 0 14.781108-20.368545v-226.502674a24.486776 24.486776 0 0 0-11.130352-20.034634L807.128643-14.470404a22.260705 22.260705 0 0 0-13.24512-4.318577z m-184.964198 159.787341l159.787341-94.274086v177.840772l-159.787341 90.690113z m207.7369-95.476164l159.78734 95.476164v174.167756l-159.78734-90.690113z m-21.570623 218.51108l153.398518 89.04282-155.824935 77.489515-155.401982-77.489515z"  horiz-adv-x="1024" />

    
    <glyph glyph-name="jieyuechengben" unicode="&#58958;" d="M386.222095 498.004047H112.359144a24.378044 24.378044 0 0 0 0 48.024747h273.862951a21.330789 21.330789 0 0 0 20.623826-24.012374c0.12189-14.553693-7.72784-24.012374-20.623826-24.012373z m288.904205 0h-82.544059a24.378044 24.378044 0 0 0 0 48.024747h82.544059a24.378044 24.378044 0 0 0 0-48.024747z m177.179627 0h-82.544059a24.378044 24.378044 0 0 0 0 48.024747h82.544059a24.378044 24.378044 0 0 0 0-48.024747zM147.780443 717.723361a42.198395 42.198395 0 1 0 41.272029 42.198395 41.442676 41.442676 0 0 0-41.101383-42.174017z m0 61.115757a17.795972 17.795972 0 0 1-17.795973-18.186021 17.795972 17.795972 0 1 1 17.795973 18.186021z m84.664948-61.115757a42.198395 42.198395 0 1 0 41.272029 42.198395 41.783968 41.783968 0 0 0-41.077005-42.174017z m0 61.115757a17.795972 17.795972 0 0 1-17.795973-18.186021 17.795972 17.795972 0 1 1 35.567567 0 17.381546 17.381546 0 0 1-17.57657 18.2104z m83.251022-61.115757a42.198395 42.198395 0 1 0 41.272029 42.198395 40.881981 40.881981 0 0 0-41.101383-42.174017z m0 61.115757a17.795972 17.795972 0 0 1-17.795973-18.186021 17.795972 17.795972 0 1 1 35.567567 0 16.650204 16.650204 0 0 1-17.600948 18.2104z m0 0M647.042792 10.150622H100.170122a33.958616 33.958616 0 0 0-33.154141 35.080005V621.015659h800.989406a33.958616 33.958616 0 0 1 33.154141 35.080006V790.004263A103.09475 103.09475 0 0 1 801.014521 896H100.170122A103.09475 103.09475 0 0 1 0.049493 790.004263V45.937591a103.09475 103.09475 0 0 1 100.120629-105.995737h546.068195v70.18439zM67.015981 790.004263a34.421799 34.421799 0 0 0 33.154141 35.080006h700.844399a33.958616 33.958616 0 0 0 33.15414-35.080006v-97.512178H67.015981zM978.974245 31.652057l-93.855471-74.938109V455.098688a28.376044 28.376044 0 0 1-56.752087 0V-43.286052l-94.586812 75.571938a29.253653 29.253653 0 0 1-40.028749-3.632329 26.815849 26.815849 0 0 1 3.632328-38.566066l140.417536-112.139004a29.473056 29.473056 0 0 1 35.640701 0l139.686195 111.31015a25.840727 25.840727 0 0 1 10.190022 26.18202 27.961617 27.961617 0 0 1-18.186021 21.94024 29.692458 29.692458 0 0 1-26.157642-5.72884z m0 0M781.829 143.693549c2.900987-38.566066 28.376044-58.21477 76.400791-58.21477s71.30578 15.285034 70.696329 45.099382c0 17.45468-10.921364 29.838726-33.471055 35.640701-21.94024 6.557694-45.830724 13.09101-72.768462 20.380045-72.037121 18.186021-107.677822 51.657076-107.677823 100.413165 1.462683 77.132133 47.293406 115.673821 138.24789 114.966858 86.590814 0 131.64144-37.834725 136.053866-114.235517h-42.320285a34.982494 34.982494 0 0 0-33.471055 21.087009 70.940109 70.940109 0 0 1-66.235147 32.008372c-38.566066-0.731341-58.946111-15.285034-60.384416-43.661077 0-23.281032 24.012374-40.028749 72.037122-50.925735a816.883891 816.883891 0 0 0 87.322155-25.475057 82.2759 82.2759 0 0 0 58.21477-90.954483c-4.36367-72.037121-53.119759-107.677822-145.512547-107.677823-97.512178 0-146.97523 40.004371-149.144876 120.061869h72.037121z"  horiz-adv-x="1024" />

    
    <glyph glyph-name="jiangdizhifu" unicode="&#58959;" d="M946.088321 387.622645a301.157756 301.157756 0 0 1-193.888742 99.345734l-37.885465 2.730484 25.622666 30.522911a137.401855 137.401855 0 0 1 12.60411 51.903575l0.268172 2.437932 1.023932 111.34036a87.497384 87.497384 0 0 1-11.702075 43.882779l-0.34131 0.365689-2.437932 7.070004 0.560724 1.389621a59.217371 59.217371 0 0 1 4.875864 23.233493 73.844964 73.844964 0 0 1-31.25429 56.486887 262.443394 262.443394 0 0 1-84.254934 42.517537A843.524517 843.524517 0 0 1 377.733204 895.931494 845.377345 845.377345 0 0 1 125.992332 860.947168a262.053325 262.053325 0 0 1-84.230555-42.493157A73.869344 73.869344 0 0 1 10.507487 761.845227a53.220058 53.220058 0 0 1 4.875865-22.940941l0.731379-1.535898-2.437932-7.313796-0.170655-0.316931a87.619281 87.619281 0 0 1-11.702074-44.053434V574.124453a86.93666 86.93666 0 0 1 18.30887-52.342403l1.682173-2.218518-6.631175-11.190108a95.493801 95.493801 0 0 1-13.408627-45.735607v-111.559774a102.661322 102.661322 0 0 1 16.87049-52.756852l1.389622-2.437932-6.704314-9.093487A94.640525 94.640525 0 0 1 0 241.419855v-111.511015c0-46.32071 38.299914-89.569626 107.878497-121.896607a653.536466 653.536466 0 0 1 268.172534-50.952781c42.858847 0 124.700228 9.312901 125.504746 9.410418l1.999104 0.243793 1.414001-1.462759a301.74286 301.74286 0 0 1 96.883423-68.018306A294.355925 294.355925 0 0 1 721.164703-128a310.202484 310.202484 0 0 1 224.923618 515.622645zM148.71386 811.042697a813.879262 813.879262 0 0 0 230.677138 29.401462C566.81922 840.444159 697.248589 793.538345 697.248589 751.33774c0-20.746802-31.693118-42.541916-87.229212-59.704958a811.831399 811.831399 0 0 0-230.652758-29.401462c-187.355084 0-317.90635 46.954573-317.90635 89.10642 0 20.771182 31.693118 42.541916 87.204832 59.704957zM54.60968 677.492775l6.850589-6.314244a297.42772 297.42772 0 0 1 130.868197-58.778543 824.459887 824.459887 0 0 1 185.282841-19.820389 825.288784 825.288784 0 0 1 185.551015 19.820389 297.42772 297.42772 0 0 1 130.892576 58.778543l6.850589 6.314244v-101.417976c0-33.838498-33.302153-68.432755-91.324938-95.079353a574.254913 574.254913 0 0 0-231.798586-43.736503 574.181775 574.181775 0 0 0-231.798587 43.736503c-58.047164 26.59784-91.373696 61.192096-91.373696 95.079353V677.492775zM487.586426 372.288052l-5.460968-7.581969a291.6742 291.6742 0 0 1-49.806954-113.412602c-0.511966-3.023036-1.145828-6.216727-1.804069-9.507936a127.479471 127.479471 0 0 1-3.364347-25.13508v-4.120105h-4.071346c-5.997313 0-12.55535-0.463207-18.918354-0.877656s-13.213592-0.902035-19.503457-0.902035a579.472088 579.472088 0 0 0-232.651863 43.736503c-58.510371 26.549081-92.202593 61.143338-92.202593 95.079353l-1.901587 116.191845 7.094383-6.996865a310.202484 310.202484 0 0 1 127.991436-68.725307 670.431335 670.431335 0 0 1 189.988051-25.720184 840.818412 840.818412 0 0 1 95.396284 7.070003l9.166625 0.975173zM474.080282 23.151792a765.754482 765.754482 0 0 0-92.860835-5.339071 686.42417 686.42417 0 0 0-234.041484 36.373947c-58.876061 22.233941-92.641421 51.781678-92.641421 81.110002v95.274388l6.631175-5.363451c60.241303-48.587987 182.84491-78.793966 319.978592-78.793967a301.060239 301.060239 0 0 1 39.592018 1.730932l3.900691 0.487587 0.633863-3.900692a249.814905 249.814905 0 0 1 30.86422-87.082935l0.146276-0.292552a103.538978 103.538978 0 0 1 20.161699-27.280461l5.924175-6.070451-8.313349-0.877655z m425.687329-21.136872a246.621214 246.621214 0 0 0-359.302437 6.509279 281.093574 281.093574 0 0 0-28.280013 35.886361v0.170655a257.128702 257.128702 0 0 0-39.006914 136.767993v1.77969a354.231538 354.231538 0 0 0 3.535001 43.005123 289.626337 289.626337 0 0 0 8.849694 37.787948v0.195035a249.619871 249.619871 0 0 0 203.713609 169.16811 191.621465 191.621465 0 0 0 32.010049 1.80407h8.874073a248.864112 248.864112 0 0 0 170.362697-77.59938 253.861873 253.861873 0 0 0 70.700031-176.140596 250.180595 250.180595 0 0 0-71.358273-179.26115zM847.693381 206.094219a24.745011 24.745011 0 0 1-34.667395-4.875864l-54.414645-72.796654v223.095169a24.76939 24.76939 0 1 1-49.514402 0v-223.095169L654.609156 201.120837a24.76939 24.76939 0 1 1-39.640777-29.742772l99.053183-132.18468a24.76939 24.76939 0 0 1 39.616397 0l99.053182 132.18468a24.79377 24.79377 0 0 1-4.99776 34.716154z"  horiz-adv-x="1024" />

    
    <glyph glyph-name="kuaisugaoxiao" unicode="&#58960;" d="M960.185178 384.030231a64.654468 64.654468 0 0 0 62.460312-52.123399 67.653148 67.653148 0 0 0-35.03336-75.015761 485.713034 485.713034 0 0 0-946.632104-15.724786 33.619348 33.619348 0 0 0 21.941562 41.445172 31.815264 31.815264 0 0 0 39.641088-22.770465 422.155644 422.155644 0 0 1 820.443745 3.218096 68.408913 68.408913 0 0 0-23.648127 74.698827 64.337534 64.337534 0 0 0 60.948782 46.321075zM597.564304 651.132173l-63.996221-200.326457h170.65659L437.610321 50.104043l63.996221 300.526255h-181.310437l95.982142 300.477496h181.310437zM512.236009 896a494.172725 494.172725 0 0 0 471.255983-369.130204 33.643728 33.643728 0 0 0-21.941561-41.445172 31.839644 31.839644 0 0 0-39.641088 22.770465 422.155644 422.155644 0 0 1-820.443745-3.193716 68.482052 68.482052 0 0 0 22.672947-77.55123 63.898703 63.898703 0 0 0-65.824685-43.224876 65.142058 65.142058 0 0 0-57.243096 54.829524 67.55563 67.55563 0 0 0 35.618468 72.06584A495.172285 495.172285 0 0 0 512.089732 895.926861zM512.260389 896a494.172725 494.172725 0 0 0 471.255983-369.130204 33.643728 33.643728 0 0 0-21.941562-41.445172 31.839644 31.839644 0 0 0-39.641088 22.770465 422.155644 422.155644 0 0 1-820.443745-3.193716 68.482052 68.482052 0 0 0 22.672947-77.55123 63.898703 63.898703 0 0 0-65.824684-43.224876 65.142058 65.142058 0 0 0-57.243097 54.829524 67.55563 67.55563 0 0 0 35.618469 72.06584A495.172285 495.172285 0 0 0 512.114112 895.926861z m447.949169-511.969769a64.654468 64.654468 0 0 0 62.460311-52.123399 67.653148 67.653148 0 0 0-35.033359-75.015761 485.713034 485.713034 0 0 0-946.632104-15.724786 33.619348 33.619348 0 0 0 21.941561 41.445172 31.815264 31.815264 0 0 0 39.641088-22.770465 422.155644 422.155644 0 0 1 820.443746 3.218096 68.408913 68.408913 0 0 0-23.648128 74.698827 64.337534 64.337534 0 0 0 60.948782 46.321075z"  horiz-adv-x="1024" />

    
    <glyph glyph-name="shenduzhengfu" unicode="&#58961;" d="M637.22478-127.99909a101.050573 101.050573 0 0 0-71.424848 29.193399L29.578854 428.336536a97.842257 97.842257 0 0 0 0 140.232985l303.72057 298.077574a102.028996 102.028996 0 0 0 142.622155 0l161.303201-158.345179 161.3032 158.572719a102.39306 102.39306 0 0 0 71.424848 29.102383 101.027819 101.027819 0 0 0 71.220062-29.102383L1244.66592 568.501258a98.888942 98.888942 0 0 0 29.580217-70.218885 97.637471 97.637471 0 0 0-29.580217-70.014099L708.422088-98.805691a100.595493 100.595493 0 0 0-71.220062-29.102383zM404.496731 838.159071a43.232625 43.232625 0 0 1-29.807757-12.218906L71.195944 527.566788a41.662598 41.662598 0 0 1 0-58.614338l536.221078-527.142227a43.437411 43.437411 0 0 1 59.638269 0l29.807758 29.307169-81.07255 79.070197a28.647303 28.647303 0 0 0 12.856018 48.807358 29.716741 29.716741 0 0 0 28.533532-7.895642l80.435438-79.070197 59.843055 58.614339-80.435437 79.070196a29.056875 29.056875 0 0 0 13.288343 49.330701 29.307169 29.307169 0 0 0 7.508825 0 30.490378 30.490378 0 0 0 21.457034-8.851311l80.435437-79.070197 59.638269 58.614339-80.207897 79.070196a28.374255 28.374255 0 0 0-8.760295 32.287945 29.170645 29.170645 0 0 0 28.283239 18.521767 30.058052 30.058052 0 0 0 21.457034-9.101605l80.640224-79.274983 29.807757 29.307169a41.662598 41.662598 0 0 1 0 58.819125L738.275353 527.088954l-4.550803-4.437032a136.956406 136.956406 0 0 0-96.522524-39.432706 140.847343 140.847343 0 0 0-52.334231 10.125536 143.191006 143.191006 0 0 0-46.759497 31.628079l-17.793639 17.497836a35.632785 35.632785 0 0 0 0 50.809712l75.29303 74.018805-161.07566 159.414618a43.232625 43.232625 0 0 1-30.035298 11.377007z m384.79312-191.247483a29.216153 29.216153 0 0 0 7.508824 0 29.580217 29.580217 0 0 0 21.457035-21.09297 28.601795 28.601795 0 0 0-9.442916-28.465271l-29.807757-29.307169 232.932834-228.359278a96.636295 96.636295 0 0 0 19.72773-27.304816l4.072968-8.009412 167.515047 164.056436a41.662598 41.662598 0 0 1 0 58.819124L899.760586 826.87308a43.437411 43.437411 0 0 1-59.638269 0L577.381725 568.137194l4.71008-4.437032a78.592362 78.592362 0 0 1 110.243195 0l75.725356 73.381693a29.807757 29.807757 0 0 0 21.229495 9.920749z"  horiz-adv-x="1274" />

    
    <glyph glyph-name="shuiwujiguan" unicode="&#58962;" d="M927.403423 177.923009a22.845157 22.845157 0 0 1-14.523418 19.99199s-69.506342 25.99553-144.639764 52.050501a383.592581 383.592581 0 0 1 92.510008 251.633563 390.091464 390.091464 0 0 1-780.182928 0 212.204367 212.204367 0 0 1 2.991864-43.590066 19.318325 19.318325 0 0 1 19.45702-19.991989h0.990683A22.80553 22.80553 0 0 1 127.069996 460.644215V461.258439a212.283622 212.283622 0 0 0-2.991864 43.590066 346.600466 346.600466 0 1 0 597.718875-237.209214c-57.974788 19.991989-112.501998 40.459507-136.02082 45.987519h-8.53969a73.152056 73.152056 0 0 1-57.974788-28.987394c-40.538761-49.058638 34.515407-118.604607 34.515407-118.604607s-190.607471 0-266.117354 77.986591c-144.501069 150.088523-182.00834 153.020946-196.55157 153.020946h-5.468572c-8.53969 0-156.092064-5.9441-19.99199-219.535424 161.956909-208.043497 315.037296-211.074988 317.573445-211.074988H895.840252c34.515407 2.991864 31.523543 25.99553 31.523544 25.99553s2.991864 173.547904 0 185.554986z m-182.087594-168.019891H381.219895c-5.528013 0-135.565106 5.9441-286.129157 190.54803-60.510937 98.038021-48.979383 130.037093-45.987519 136.100074 5.9441 11.531554 25.99553 14.523417 31.523543 14.523418h8.460436c14.523417-2.991864 40.518948-11.531554 162.01635-136.02082 86.585722-89.577586 274.597603-92.609077 297.66071-92.609077h57.994602a15.593355 15.593355 0 0 1 11.531553 25.995531l-34.515406 49.058638c-14.523417 11.531554-45.98752 48.979383-25.995531 66.514478a27.580624 27.580624 0 0 0 17.45584 5.9441c55.042365-14.463976 309.093196-109.965849 309.093196-109.965849v-150.088523H745.256388zM922.925534 196.646924a30.988574 30.988574 0 0 1-8.460435 5.448758 5037.12934 5037.12934 0 0 1-144.501069 51.991061l1.466211-6.53851a388.962085 388.962085 0 0 1 93.500692 254.288594 394.153266 394.153266 0 0 1-788.306532 0 201.564428 201.564428 0 0 1 2.991864-44.04578 23.578263 23.578263 0 0 1 23.99435-23.479195h0.475528a27.18435 27.18435 0 0 1 27.521183 26.451245v0.534969a197.30449 197.30449 0 0 0-2.991864 43.590066 342.617919 342.617919 0 1 0 591.239805-234.058841l4.458075 0.990683-81.037895 28.452425q-27.263605 9.669069-54.982925 17.990809h-9.470932a74.796591 74.796591 0 0 1-61.045906-30.453605 54.982924 54.982924 0 0 1-12.997765-37.982798 106.993799 106.993799 0 0 1 23.99435-58.589012 189.121446 189.121446 0 0 1 23.99435-27.461742l3.071118 7.410312q-23.02348 0.515155-45.98752 2.536149a599.482291 599.482291 0 0 0-101.049698 16.465157 243.708097 243.708097 0 0 0-115.96939 57.974788c-115.573116 120.090632-167.088649 154.546598-199.602875 154.546597h-5.547827a84.24771 84.24771 0 0 1-67.564602-31.444288c-26.986214-36.516587-16.465157-99.504233 43.986339-194.609831a600.116328 600.116328 0 0 1 220.605362-185.020017 272.457727 272.457727 0 0 1 101.049699-27.996711h510.182096a40.102861 40.102861 0 0 1 31.523543 14.463977 24.58876 24.58876 0 0 1 4.458075 15.533914v12.997765c0.534969 26.530499 0.534969 53.060999 0.990683 79.967958a881.093931 881.093931 0 0 1-1.466211 93.124232 22.528139 22.528139 0 0 1-8.53969 17.000126z m1.525653-110.956532c0-26.530499-0.534969-52.981744-0.990684-79.967957v-13.057207a14.86025 14.86025 0 0 0-3.071118-10.996584 31.048015 31.048015 0 0 0-24.985033-10.996585h-511.192593a159.678338 159.678338 0 0 0-26.986214 3.467391 324.78562 324.78562 0 0 0-70.516839 23.518822 593.974091 593.974091 0 0 0-217.078529 182.087595c-58.450316 91.875971-68.456217 151.455666-43.986339 184.82188a77.273299 77.273299 0 0 0 61.045906 27.99671h5.508199a83.217399 83.217399 0 0 0 47.057458-19.45702 996.072637 996.072637 0 0 0 146.502249-132.573242 251.910955 251.910955 0 0 1 120.031191-60.510937 617.829746 617.829746 0 0 1 102.575351-16.465157c15.45466-1.525652 30.988574-1.981367 46.522489-2.536149l2.991864 7.529193a182.503681 182.503681 0 0 0-22.528139 25.99553 101.505413 101.505413 0 0 0-22.528139 53.992241 47.552799 47.552799 0 0 0 10.996585 32.514227 66.653174 66.653174 0 0 0 54.52721 27.521182h8.53969c9.530374-2.536149 26.530499-7.925467 53.496899-17.535094 12.522237-4.458075 67.049447-23.99435 81.037896-28.452425l4.458075 0.990683A350.483945 350.483945 0 1 1 120.155026 503.263411a201.24741 201.24741 0 0 1 2.991864-43.986339 18.109691 18.109691 0 0 0-19.001306-17.990809 15.850933 15.850933 0 0 0-15.910374 15.018759v0.871801a201.584242 201.584242 0 0 0-2.991864 43.590067 385.851339 385.851339 0 1 0 771.722493 0 378.93637 378.93637 0 0 0-91.499512-248.602073l1.525653-6.53851a7061.392568 7061.392568 0 0 0 144.501069-51.99106 44.679818 44.679818 0 0 0 5.9441-3.962734 16.663293 16.663293 0 0 0 5.9441-12.522237c1.069938-4.458075 1.525652-38.993295 1.069938-91.499511z m-543.171851-71.131062a232.850208 232.850208 0 0 0-86.981996 25.539816 575.190736 575.190736 0 0 0-195.541073 163.561816c-45.98752 74.519199-53.992241 114.562619-45.571433 131.562745 3.467392 7.469752 17.990809 11.987268 27.996711 11.987268h8.53969c22.468698-4.53733 60.510937-33.524724 159.024486-134.554609 38.993295-39.983979 99.979761-66.514478 175.09337-81.037895a664.372048 664.372048 0 0 1 125.955478-12.462796h58.054042a19.813666 19.813666 0 0 1 14.523418 32.989754l-33.980438 48.523669c-23.063108 18.525778-39.983979 49.534166-26.5305 61.045906a25.40112 25.40112 0 0 0 14.463977 4.993044c19.991989-5.528013 73.052988-23.518822 148.087343-50.524849l8.460435-2.991864c45.98752-17.059567 92.569449-33.524724 138.695665-51.059818l12.938324-4.993044-2.456894 3.962733v-150.009268l3.962733 3.962733-504.654083-0.534969z m502.652903-8.460436l3.962733 3.962733v150.06871l-2.991864 3.962733-12.997765 4.993044c-45.98752 17.000126-92.569449 34.000252-138.695664 51.059818l-8.460436 2.991864c-74.974914 26.986214-127.956658 45.571433-150.029082 50.980564a30.53286 30.53286 0 0 1-20.526958-6.459256c-19.991989-17.059567-0.475528-52.52603 25.520002-73.052988l34.09932-47.9887a11.51174 11.51174 0 0 0-7.925467-19.536275h-57.974788a691.140311 691.140311 0 0 0-124.033551 12.462796c-73.587957 14.523417-133.088397 39.983979-170.615482 78.581001-99.504233 101.980941-138.497528 131.959018-163.958089 137.031317h-9.688883a40.419879 40.419879 0 0 1-35.466463-17.000126c-9.906833-19.991989-1.525652-62.512117 46.522489-140.02318a581.749059 581.749059 0 0 1 199.028279-166.038524 242.796668 242.796668 0 0 1 90.568269-26.5305l503.6634 0.534969zM618.349854 486.758627a25.361493 25.361493 0 0 0 23.99435-23.518822 27.580624 27.580624 0 0 0-23.99435-23.518822h-121.556843v-50.524849c0-9.470933-9.470933-19.001306-25.99553-19.001306a21.795033 21.795033 0 0 0-23.99435 19.001306v50.524849h-121.576657a23.538636 23.538636 0 1 0 0 47.057458h121.556843v42.381432h-121.556843a26.253108 26.253108 0 0 0-23.99435 23.99435 26.609754 26.609754 0 0 0 23.99435 22.528139h102.575351l-96.57181 95.640568c-6.994224 9.470933-2.456895 19.001306 11.987268 25.99553a33.207705 33.207705 0 0 0 33.524723-6.994224l99.068332-98.038021 96.512369 95.501872a28.472239 28.472239 0 0 0 33.524724 6.994224c11.987268-4.993044 16.524598-16.465157 11.987268-23.99435l-96.512369-97.97858h99.979761a23.538636 23.538636 0 1 0 0-47.057458h-121.636098v-39.983979l118.564979 0.990683"  horiz-adv-x="1024" />

    
    <glyph glyph-name="kaipiaoguanli1" unicode="&#58951;" d="M594.43584-32h-474.24A121.6 121.6 0 0 0 0.00384 90.56V773.44A121.6 121.6 0 0 0 120.19584 896h898.304a121.6 121.6 0 0 0 120.192-122.56V428.8a40.064 40.064 0 1 0-80.128 0V773.568a40.576 40.576 0 0 1-40.064 40.832H120.19584a40.576 40.576 0 0 1-40.064-40.832v-682.944a40.576 40.576 0 0 1 40.064-40.832h474.048a40.832 40.832 0 0 0 0-81.664zM312.32384 359.68v46.4H160.00384c-10.56 1.088-15.744 8.576-15.744 22.464 1.088 12.8 6.784 19.712 17.344 20.8h336.64c9.472-1.088 15.232-8.064 17.344-20.8-1.088-13.888-6.4-21.376-15.744-22.464H358.01984v-64q1.6-48-81.728-28.864a23.744 23.744 0 0 0-18.816 22.464 18.432 18.432 0 0 0 17.344 19.2 92.096 92.096 0 0 0 12.8-1.6c17.344-2.176 25.984-0.128 24.704 6.4zM161.34784 632.128c-9.472 1.088-14.72 8.576-15.744 22.464 1.088 12.8 6.4 19.712 15.744 20.8h336.64c10.432-1.088 16.32-8.064 17.344-20.8-1.088-13.888-6.784-21.376-17.344-22.464H400.45184V614.4h64.512c16.704 0 25.088-6.976 25.088-20.8v-54.464c0-16.064-8.384-24.128-25.088-24.128H192.77184c-18.816-1.088-27.776 6.4-26.688 22.464v51.2c0 18.112 7.872 26.688 23.616 25.6h69.184v17.728zM160.00384 351.68c2.112 1.088 10.944 7.488 26.688 19.2 20.992 14.976 32.448 23.04 34.624 24.128a20.928 20.928 0 0 0 29.952-6.4 23.232 23.232 0 0 0-4.672-30.528q-22.016-15.936-64.512-43.264a20.928 20.928 0 0 0-29.952 6.4 21.312 21.312 0 0 0 7.872 30.464z m26.688 113.856c-9.472 1.088-14.144 7.488-14.144 19.2 1.088 11.712 6.4 17.728 15.744 17.728h281.6c18.816-11.712 18.816-24.128 0-36.928z m22.016 110.528v-20.8h50.368V576z m94.464 38.4h50.368v17.728h-50.368z m0-57.6h50.368v19.2h-50.368z m163.52-235.648a725.568 725.568 0 0 0-69.184 38.4 25.152 25.152 0 0 0-4.672 30.528 22.592 22.592 0 0 0 28.288 8.064 384 384 0 0 0 69.184-38.4 21.056 21.056 0 0 0 9.472-30.528 24.128 24.128 0 0 0-33.344-8.128zM400.45184 556.8h47.168V576h-47.168z m566.784 36.736H614.40384a40.832 40.832 0 0 0 0 81.664h352.64a40.832 40.832 0 0 0 0-81.664z m0-153.152H614.40384a40.832 40.832 0 0 0 0 81.664h352.64a40.832 40.832 0 0 0 0-81.664z m166.976-372.096a58.688 58.688 0 0 0-0.384 95.552l17.792 12.8-7.36 20.672a241.664 241.664 0 0 1-44.096 76.8l-14.016 16.448-19.2-9.28a56.704 56.704 0 0 0-80.832 47.232l-1.984 21.76-21.12 4.096a235.584 235.584 0 0 1-87.36 0l-21.12-4.096-1.984-21.76a56.704 56.704 0 0 0-80.832-47.232l-19.2 9.28-13.76-16.32a244.224 244.224 0 0 1-44.096-76.8l-7.36-20.672 17.792-12.8a58.688 58.688 0 0 0-0.384-95.552l-17.792-12.416 7.104-20.8a241.6 241.6 0 0 1 43.264-76.8l14.144-17.024 19.776 9.792a54.144 54.144 0 0 0 24.832 5.696 57.6 57.6 0 0 0 56.896-54.208l1.472-22.336 21.632-4.096a234.112 234.112 0 0 1 87.104 0l21.632 4.096 1.472 22.336a56.96 56.96 0 0 0 81.728 48.448l19.776-9.792 14.144 17.024a241.6 241.6 0 0 1 43.264 76.8l7.104 20.8z m-64-57.6a113.344 113.344 0 0 1-136.512-80.896 200.064 200.064 0 0 0-28.608 0 113.344 113.344 0 0 1-136.512 80.896 204.352 204.352 0 0 0-14.272 25.6 117.12 117.12 0 0 1 0.64 159.424 181.76 181.76 0 0 0 14.848 25.6 112.576 112.576 0 0 1 102.72 27.392 114.752 114.752 0 0 1 32 51.2 179.2 179.2 0 0 0 29.632 0 117.184 117.184 0 0 1 32-51.2 112.192 112.192 0 0 1 76.8-30.336 110.848 110.848 0 0 1 26.048 3.008 189.632 189.632 0 0 0 14.848-25.6 117.12 117.12 0 0 1 0.64-159.424 133.184 133.184 0 0 0-14.336-25.6zM919.42784 217.6a102.4 102.4 0 1 1 100.608-102.4 101.632 101.632 0 0 1-100.608 102.4z m0-147.2a44.8 44.8 0 1 0 44.096 44.8 44.8 44.8 0 0 0-44.096-44.8z m0 0"  horiz-adv-x="1152" />

    
    <glyph glyph-name="dingdanxinxi" unicode="&#58952;" d="M1015.235727 479.688499A512.112071 512.112071 0 1 1 9.159081 287.575361a501.18944 501.18944 0 0 1 73.955309-184.319385 38.854982 38.854982 0 1 1 64.739339 42.950968 435.767436 435.767436 0 0 0 3.925321 482.643724 427.632352 427.632352 0 0 0 277.673741 182.726502 434.515885 434.515885 0 1 0-120.035156-811.460406 39.310091 39.310091 0 0 1-36.636322-69.51799 508.812526 508.812526 0 0 1 238.932537-58.595361 499.141447 499.141447 0 0 1 95.914347 9.386636 513.818732 513.818732 0 0 1 407.891973 598.241561zM467.795774 315.678379H323.696699a40.732309 40.732309 0 1 1 0-81.407729h144.099075v-128.739126a40.732309 40.732309 0 1 1 81.407729 0v128.739126h144.099075a40.732309 40.732309 0 1 1 0 81.407729H549.203503V394.639893a25.144805 25.144805 0 0 1-0.796442 8.135084h144.952406a40.732309 40.732309 0 1 1 0 81.407729H324.493141a40.732309 40.732309 0 1 1 0-81.407729h144.952405a27.704797 27.704797 0 0 1-0.796441-8.135084v-78.961514zM400.098222 518.14526a40.902975 40.902975 0 1 1 57.798918 57.798918L369.947211 663.894107a40.902975 40.902975 0 1 1-57.855807-57.798918zM607.343753 518.088371l87.949929 87.949929a40.902975 40.902975 0 1 1-57.798918 57.798918L549.544835 575.887289a40.334088 40.334088 0 0 1 0-57.798918 41.813194 41.813194 0 0 1 57.798918 0z"  horiz-adv-x="1024" />

    
    <glyph glyph-name="gongzuotai" unicode="&#58953;" d="M895.90413-127.484335H220.991202a107.340208 107.340208 0 0 0-84.428077 34.112354 126.49998 126.49998 0 0 0-26.380221 93.354143V396.595134h71.86336v-401.161286l-0.341124-2.103595a59.241789 59.241789 0 0 1 9.26719-40.366286c2.160449-2.387865 8.755504-9.722021 30.189433-9.722021H894.369074a59.98089 59.98089 0 0 1 39.229208 12.735279 56.853924 56.853924 0 0 1 14.270334 43.32269V396.879404h71.635944v-397.636343a123.031891 123.031891 0 0 0-37.580443-95.400884 130.309193 130.309193 0 0 0-86.019987-31.326512zM146.05773 363.449296H35.874826a35.817972 35.817972 0 0 0-33.486961 22.74157 34.908309 34.908309 0 0 0 9.722021 38.888084l528.74149 461.93813a36.272803 36.272803 0 0 0 47.302465 0l536.359916-458.299479a34.908309 34.908309 0 0 0 10.233707-38.490106 35.817972 35.817972 0 0 0-32.74786-23.366963l-117.573915-3.297528h-0.739101a35.249433 35.249433 0 1 0-1.02337 70.55572l25.697973 0.739101-443.460605 378.703986-434.648247-379.556795h15.748537a35.249433 35.249433 0 1 0 0-70.55572z m298.710515-455.797906a30.018872 30.018872 0 0 0-30.246287 29.734602v248.963332a70.953697 70.953697 0 0 0 22.4573 48.496397 178.52132 178.52132 0 0 0 128.717283 38.490106 174.541546 174.541546 0 0 0 127.295935-39.001791 73.910101 73.910101 0 0 0 22.74157-51.168532v-244.983557a30.246287 30.246287 0 0 0-60.492575 0v244.471872a21.888761 21.888761 0 0 1-8.98292 12.735279 129.797508 129.797508 0 0 1-80.732572 18.079548c-58.559541 0-79.595493-14.497751-85.622009-20.694829a18.989211 18.989211 0 0 1-4.889437-7.277302v-248.394793a30.018872 30.018872 0 0 0-30.246288-29.450332z"  horiz-adv-x="1137" />

    
    <glyph glyph-name="zhanghaoguanli" unicode="&#58954;" d="M741.897911-127.936033a295.079849 295.079849 0 0 0-62.495776 6.780504l-20.78928 3.582153-27.953587 84.69233a15.735886 15.735886 0 0 1-13.816875 9.65902H615.243217l-87.123077-14.264645-13.561007 14.072744a156.143489 156.143489 0 0 0-27.697719 40.491122 220.494308 220.494308 0 0 0-22.004654 52.452954l-7.164306 18.550434 58.082052 67.421236a15.352084 15.352084 0 0 1 0.895538 16.759359l-0.511736 0.511736-56.227008 70.363719 7.228273 18.742336a284.397358 284.397358 0 0 0 50.725844 91.408867l0.44777 0.511736 9.083316 9.467119a258.298815 258.298815 0 0 0-90.321428-19.190105h-2.558681a370.432995 370.432995 0 0 1-363.204722-376.445896 35.437727 35.437727 0 1 0-70.875455 0 463.121203 463.121203 0 0 0 23.475895 146.228601 454.165821 454.165821 0 0 0 65.18239 126.206925 442.715725 442.715725 0 0 0 98.956976 97.933503 424.677026 424.677026 0 0 0 93.775647 50.789811 273.331064 273.331064 0 0 0-78.871332 82.837287 283.245951 283.245951 0 0 0-41.066825 148.275546 278.960161 278.960161 0 0 0 78.167695 194.843534 258.682617 258.682617 0 0 0 376.062093 0 283.373885 283.373885 0 0 0 3.582153-387.06442 264.055846 264.055846 0 0 0-82.517452-60.001062l77.911826-13.433074h1.599176a20.661346 20.661346 0 0 1 16.375556 11.002327l29.744663 83.157122 18.2306 3.774054a272.691394 272.691394 0 0 0 60.960567 6.844471 293.736542 293.736542 0 0 0 62.175941-6.780504l20.725313-3.582153 28.081521-82.517452a18.550435 18.550435 0 0 1 16.055721-11.769931h1.791076l84.820265 11.897865 13.94481-14.392578 0.447769-0.511737a170.344166 170.344166 0 0 0 26.994081-41.898396 294.248278 294.248278 0 0 0 14.58448-32.815079l4.669592-11.57803v-0.319836l7.356207-19.190105-55.715272-69.788015a18.2306 18.2306 0 0 1 0-20.213578l55.843206-67.54917-7.356207-19.190105a267.254197 267.254197 0 0 0-48.998735-89.553823l-13.880843-14.392579-84.948198 14.264644h-1.663143a15.735886 15.735886 0 0 1-13.816875-9.659019v-0.319835l-30.064498-86.227539-18.422501-3.838021a295.015882 295.015882 0 0 0-62.687677-6.844471z m-25.586807 74.073806a220.686209 220.686209 0 0 1 56.099074 0l15.86382 45.736417a86.41944 86.41944 0 0 0 79.830838 59.041557 70.363719 70.363719 0 0 0 14.008776-1.407275l43.241704-7.164306a185.824184 185.824184 0 0 1 17.462995 32.943014l-28.145487 34.670123a92.880109 92.880109 0 0 0-2.174879 112.709884l29.552762 36.013431a307.041682 307.041682 0 0 1-9.85092 18.422501v1.023472a115.140631 115.140631 0 0 1-8.507614 14.712414l-46.120219-5.501164a81.238112 81.238112 0 0 0-10.29869-0.63967 88.018615 88.018615 0 0 0-82.709353 60.704699l-13.880842 41.322693a205.462059 205.462059 0 0 1-54.244031 0l-15.799853-43.689472a87.378945 87.378945 0 0 0-81.238112-58.913623 77.719926 77.719926 0 0 0-14.584479 1.407274l-44.585011 7.100339a241.859291 241.859291 0 0 1-18.358534-33.774585l29.616729-36.077397a92.816142 92.816142 0 0 0 0-112.645917l-30.000531-36.589134a191.901051 191.901051 0 0 1 10.29869-20.085643v-1.023472a72.026861 72.026861 0 0 1 7.356206-12.409602l49.12667 7.548108a80.918277 80.918277 0 0 0 10.362656 0.63967 88.018615 88.018615 0 0 0 82.77332-60.768666zM428.459528 822.102104a202.583543 202.583543 0 1 1 195.163369-202.391642 199.193291 199.193291 0 0 1-195.35527 202.391642z m314.717723-769.587182a106.313182 106.313182 0 0 0-77.080255 32.943014 116.292037 116.292037 0 0 0 0 159.917542 106.696984 106.696984 0 0 0 154.160511 0 115.140631 115.140631 0 0 0-0.895538-159.917542 107.784424 107.784424 0 0 0-76.376619-32.943014z m0 152.177533a39.403682 39.403682 0 1 1 37.996408-39.403682 38.38021 38.38021 0 0 1-38.188309 39.403682z"  horiz-adv-x="1024" />

    
    <glyph glyph-name="yewuchangjing1" unicode="&#58955;" d="M321.638664 252.536884a30.929503 30.929503 0 0 0 0 61.804838h358.858065a30.929503 30.929503 0 0 0 0-61.804838z m-4.387548-166.997647a30.929503 30.929503 0 0 0 0 61.804838h358.858065a30.929503 30.929503 0 0 0 0-61.804838z m-159.305897-212.985648A75.834157 75.834157 0 0 0 78.698524-42.945493V783.105148C78.698524 831.855678 102.369615 874.214472 159.949407 874.214472h505.217989a31.308673 31.308673 0 0 0 28.600311-18.633536 34.504542 34.504542 0 0 0-3.033367-35.262883 31.57951 31.57951 0 0 0-25.566944-13.487647H142.615885V-60.062345h734.50798v12.783472 53.192245 531.001602a34.504542 34.504542 0 0 0 12.675138 27.083627 30.712834 30.712834 0 0 0 19.121041 6.879242 33.042026 33.042026 0 0 0 32.17535-33.7462v-584.410516a91.16349 91.16349 0 0 0-15.546003-57.63396 73.829969 73.829969 0 0 0-60.77566-22.750247zM805.731423 845.397492l7.475081 9.695939c6.229234 8.070921 14.733493 19.121041 19.93355 25.187773a45.175491 45.175491 0 0 0 35.262883 15.654337 63.429856 63.429856 0 0 0 21.341899-3.845875 107.251165 107.251165 0 0 0 47.504683-43.712975 51.242223 51.242223 0 0 0 0-55.738106c-8.937597-12.783472-16.250177-22.262742-18.633536-25.729446l-6.770907-8.991764L805.731423 845.397492zM605.800084 425.980435a18.74187 18.74187 0 0 0-14.354322 5.850064 31.958681 31.958681 0 0 0-6.337569 23.29192 671.186459 671.186459 0 0 0 13.650148 90.350981 93.655184 93.655184 0 0 0 13.487647 28.762813c10.833451 15.600169 142.947386 200.418844 169.326839 237.035908l6.71674 9.370935 105.734482-87.480117-6.391736-9.045931c-37.375406-52.433903-159.685068-224.144102-166.618477-233.406703a102.21361 102.21361 0 0 0-21.666902-21.666902 459.229989 459.229989 0 0 0-82.984235-41.600452 39.487929 39.487929 0 0 0-10.45428-1.625018z"  horiz-adv-x="1024" />

    
    <glyph glyph-name="xuanzhuan" unicode="&#59008;" d="M935.497143 236.982857a36.937143 36.937143 0 0 0-1.755429-18.505143 434.322286 434.322286 0 0 0-370.980571-337.773714C325.632-149.650286 107.373714 19.748571 77.531429 258.706286a435.712 435.712 0 0 0 378.587428 487.131428c5.778286 1.243429 13.385143 1.901714 19.748572 1.974857-2.633143 24.137143-5.851429 46.518857-7.899429 66.267429-3.291429 25.526857-6.582857 44.617143-6.582857 50.980571-1.974857 7.021714-1.389714 15.36 3.657143 21.065143a21.796571 21.796571 0 0 0 31.305143 4.608l0.585142-1.243428 17.993143-16.530286 126.683429-98.962286 17.92-13.312 15.36-11.410285c5.12-3.803429 7.68-8.850286 8.996571-14.628572a20.260571 20.260571 0 0 0-4.388571-16.603428l-11.410286-15.36-13.312-17.92L555.885714 558.08l-14.555428-18.578286-1.243429-0.658285a23.625143 23.625143 0 0 0-31.890286-3.291429c-5.778286 5.12-9.654857 12.726857-8.411428 19.748571-1.316571 5.705143-3.291429 25.453714-6.582857 50.980572-2.633143 17.846857-5.266286 38.838857-7.899429 59.904-6.436571 0-13.385143-1.974857-19.748571-1.974857-193.828571-24.502857-332.726857-201.801143-308.297143-395.556572 24.502857-193.828571 201.801143-332.726857 395.556571-308.224a353.426286 353.426286 0 0 1 303.616 281.307429 40.082286 40.082286 0 0 0 34.377143 30.134857c22.235429 3.291429 43.373714-13.165714 44.763429-34.889143z"  horiz-adv-x="1024" />

    
    <glyph glyph-name="fuwuchakan" unicode="&#58888;" d="M322.755191 252.23297a30.986065 30.986065 0 0 0 0 61.810464h357.01336a30.986065 30.986065 0 0 0 0-61.810464z m-4.364994-167.055308a30.986065 30.986065 0 0 0 0 61.810464h357.01336a30.986065 30.986065 0 0 0 0-61.810464zM159.90321-127.898689A75.444333 75.444333 0 0 0 81.063882-43.347148V783.03774C81.063882 831.861001 104.613292 874.217604 161.897096 874.217604h502.620922a31.147732 31.147732 0 0 0 28.453291-18.591639 34.704393 34.704393 0 0 0-3.017773-35.29717 31.363287 31.363287 0 0 0-25.435518-13.472202H144.652677v-867.609826h730.732251v13.041092 53.242143 531.181991a34.596615 34.596615 0 0 0 12.609981 26.944405 30.447177 30.447177 0 0 0 19.02275 6.897767 32.979951 32.979951 0 0 0 32.009952-33.788283v-584.262468a91.610975 91.610975 0 0 0-15.466088-57.661026 73.234892 73.234892 0 0 0-60.463244-22.741077zM804.359477 845.387092l7.436656 9.699985c6.197213 8.083321 14.657756 19.130527 19.831082 25.219963A44.835489 44.835489 0 0 0 866.70883 895.988683a62.780463 62.780463 0 0 0 21.23219-3.879994 106.915397 106.915397 0 0 0 47.260486-43.757713 51.463813 51.463813 0 0 0 0-55.774917c-8.891653-12.771648-16.166643-22.309967-18.53775-25.758851l-6.736102-8.999431L804.359477 845.387092zM605.455883 425.754935a18.591639 18.591639 0 0 0-14.280534 5.819992 32.333285 32.333285 0 0 0-6.304991 23.333854 675.011222 675.011222 0 0 0 13.57998 90.371533 93.928194 93.928194 0 0 0 13.418313 28.776624c10.777762 15.627755 142.212567 200.250815 168.456418 237.11076L787.007281 820.544351l105.190955-87.515426-6.358879-9.05332c-37.183278-52.433811-158.864209-224.231335-165.761977-233.554099a101.957627 101.957627 0 0 0-21.555524-21.555523 455.845436 455.845436 0 0 0-82.557655-41.602161 39.069387 39.069387 0 0 0-10.40054-1.616664z"  horiz-adv-x="1024" />

    
    </font>
</defs>
</svg>
